<svg width="600" height="600" viewBox="0 0 600 600" fill="none" xmlns="http://www.w3.org/2000/svg">
<g clip-path="url(#clip0_305_31)">
<rect width="600" height="600" fill="white"/>
<path d="M303.992 600.881C423.959 600.881 521.798 585.508 521.798 566.58C521.798 547.563 423.959 532.101 303.992 532.101C184.204 532.101 86.4532 547.563 86.4532 566.58C86.4532 585.508 184.204 600.881 303.992 600.881Z" fill="#0F172A"/>
<path d="M546.413 429.463C546.413 493.445 521.797 529.257 481.098 549.34C449.729 586.574 401.12 597.505 377.127 572.267C354.111 573.867 329.585 574.222 303.992 574.222C278.577 574.222 253.962 573.867 230.857 572.267C206.953 597.505 158.433 586.574 126.886 549.34C86.4532 529.257 61.5713 493.445 61.5713 429.463C61.5713 391.34 73.3901 -4.99283 166.964 152.652C177.183 158.339 189.891 101.733 226.325 65.2097C279.91 12.069 365.93 4.78218 386.013 56.1455C407.074 109.997 389.835 164.293 413.828 158.339C422.537 156.117 434.711 132.213 441.198 121.994C543.569 -40.183 546.413 386.631 546.413 429.463Z" fill="#F56020"/>
<path d="M94.2733 525.969C73.3902 504.553 61.5713 473.717 61.5713 429.463C61.5713 391.34 73.3901 -4.99283 166.964 152.652C177.183 158.339 189.891 101.733 226.325 65.2097C279.91 12.069 365.93 4.78218 386.013 56.1455C407.074 109.997 389.835 164.293 413.828 158.339C422.537 156.117 434.711 132.213 441.198 121.994C474.611 69.0308 497.449 78.8058 513.089 117.639C470.079 78.4504 467.679 116.395 434.089 159.405C400.587 202.416 383.347 146.698 383.347 146.698C372.239 94.8014 386.902 66.8092 344.514 44.8598C291.818 30.0196 249.43 66.276 221.437 105.11C200.91 133.635 191.135 165.715 177.716 168.647C146.17 175.756 128.575 140.922 128.575 140.922C95.695 171.224 84.0538 271.196 78.6331 353.751C73.2124 437.016 74.8121 513.439 94.2733 525.969Z" fill="#FF9E75"/>
<path d="M504.914 447.947C504.914 492.023 493.095 519.393 459.682 535.922C433.378 566.935 393.301 575.911 373.484 555.028C354.289 556.272 333.939 556.627 312.879 556.627C291.64 556.627 238.5 557.16 219.483 555.739C199.666 576.622 159.411 567.735 133.285 536.811C99.6941 520.193 103.16 500.91 103.16 447.947C103.16 416.133 90.2746 70.4527 167.764 201.349C176.117 205.881 204.554 152.296 234.856 122.171C279.11 78.095 326.475 53.213 343.004 95.69C360.421 140.389 392.59 217.611 412.495 212.724C419.782 210.947 429.735 191.13 435.244 182.599C520.109 48.3255 504.914 403.692 504.914 447.947Z" fill="#FED500"/>
<path d="M447.33 530.679C426.18 555.916 393.3 563.203 377.127 546.141C361.576 547.208 330.829 546.675 313.589 546.675C296.35 546.675 237.077 547.03 221.437 545.964C205.086 563.025 172.473 555.739 151.057 530.501C104.226 515.394 113.112 186.242 177.361 294.39C184.204 298.211 211.662 255.379 236.367 230.852C272.445 194.773 322.298 183.31 335.805 217.967C350.112 254.49 392.945 305.675 409.118 301.677C415.072 300.255 423.247 284.082 427.602 277.15C498.693 164.648 509.09 508.019 447.33 530.679Z" fill="#FEB200"/>
<path fill-rule="evenodd" clip-rule="evenodd" d="M552.633 429.463C552.633 462.432 546.058 488.558 534.328 508.907C522.686 529.079 505.802 543.742 485.097 554.317C482.431 557.338 479.499 560.271 476.566 563.026C461.015 578.044 442.442 587.463 424.847 590.751C406.719 594.217 389.302 590.751 376.594 580.087C376.061 579.465 375.528 579.11 374.995 578.577C364.242 579.11 353.223 579.643 341.759 579.821C328.696 580.176 316.167 580.443 303.992 580.443C291.848 580.443 279.318 580.235 266.403 579.821C254.851 579.643 243.742 579.11 233.257 578.577C232.723 579.11 232.19 579.465 231.39 580.087C218.683 590.751 201.266 594.217 183.137 590.751C165.542 587.463 147.236 578.044 131.418 563.026C128.575 560.271 125.642 557.338 123.065 554.317C102.182 543.742 85.4758 529.257 73.7458 508.907C61.9269 488.558 55.4397 462.432 55.4397 429.463C55.4397 407.602 59.172 270.308 79.6996 184.11C85.4758 159.583 92.7626 139.056 101.649 125.993C112.046 110.975 124.576 105.11 139.772 112.93C149.191 117.817 159.588 128.747 170.43 146.698C183.137 115.862 198.244 84.8486 221.971 61.0331C238.322 44.6821 257.694 32.5078 277.333 24.9543C296.35 17.312 316.166 14.0241 333.584 15.4459C351.712 16.7788 367.708 23.0882 378.993 34.5516C384.414 39.7946 388.768 46.3705 391.612 53.924C401.654 79.5168 403.253 104.932 404.586 124.393C405.119 133.813 405.653 141.81 407.074 147.231C407.963 151.052 409.474 153.007 412.317 152.296C416.672 151.23 425.203 136.923 431.423 126.348C433.023 123.504 434.711 120.75 435.955 118.795C448.307 99.1557 459.504 87.6923 469.724 82.4493L470.257 82.2716C486.163 74.6293 499.315 81.2052 509.801 97.5562C519.043 111.863 526.152 134.346 531.75 161.005C551.745 255.379 552.633 404.937 552.633 429.463ZM523.753 502.776C534.505 484.203 540.281 460.299 540.281 429.463C540.281 405.114 539.393 256.445 519.754 163.404C514.511 138.167 507.757 117.106 499.493 104.043C492.739 93.5573 484.742 89.0252 475.677 93.3796L475.144 93.5573C466.969 97.7339 457.371 107.864 446.263 125.282C445.019 127.414 443.598 129.814 441.909 132.569C434.711 144.921 424.669 161.894 415.25 164.293C403.431 167.225 398.01 161.538 395.078 150.164C393.478 143.588 392.945 135.234 392.412 125.104C391.079 106.62 389.479 82.2716 380.237 58.456C377.838 52.5021 374.639 47.2592 370.462 43.0826C361.132 34.0185 347.891 28.9532 332.695 27.6202C316.877 26.5539 299.282 29.4864 281.687 36.3289C263.559 43.438 245.786 54.7237 230.68 69.564C211.485 88.8475 198.955 113.996 189.891 132.213C187.136 137.634 184.826 142.521 182.604 146.342C176.828 156.828 170.074 162.338 163.943 158.161C156.656 151.052 149.724 132.035 134.173 123.86C125.82 119.506 118.355 123.504 111.868 132.924C103.871 144.654 97.1169 163.76 91.6962 186.953C71.5241 271.907 67.703 407.869 67.703 429.463C67.703 460.299 73.568 484.203 84.4094 502.776C94.9842 521.082 110.358 534.322 129.463 543.742C130.174 544.097 130.885 544.631 131.596 545.342C134.173 548.452 137.017 551.384 139.949 554.05C153.901 567.558 170.074 575.911 185.359 578.754C200.021 581.509 213.795 578.932 223.659 570.579C224.548 569.868 225.436 568.979 226.147 568.268C227.392 566.758 229.258 565.869 231.213 566.047C242.854 566.935 254.673 567.38 266.669 567.735C278.044 567.913 290.752 568.091 303.992 568.091C317.233 568.091 329.94 567.913 341.404 567.735C353.401 567.38 365.131 566.935 376.772 566.047C378.549 566.047 380.415 566.58 381.659 568.091C382.548 568.979 383.525 569.868 384.592 570.579C394.367 578.932 407.963 581.509 422.714 578.754C437.91 575.911 454.261 567.558 468.213 554.05C471.145 551.384 473.9 548.452 476.566 545.342C477.099 544.631 477.721 544.275 478.432 543.742C497.627 534.322 513.089 521.082 523.753 502.776Z" fill="#0F172A"/>
<path d="M285.864 100.755C300.171 90.447 316.7 89.3807 320.521 101.733C365.308 249.425 190.424 169.358 285.864 100.755Z" fill="#FEB200"/>
<path d="M395.611 241.071C402.364 234.495 410.895 232.54 414.006 238.672C449.729 312.163 351.534 284.97 395.611 241.071Z" fill="#FEB200"/>
<path d="M199.844 228.364C194.601 218.767 185.714 213.879 180.205 219.655C115.867 289.325 234.145 291.902 199.844 228.364Z" fill="#FEB200"/>
<path d="M424.314 117.106C421.026 119.683 417.294 120.039 416.494 116.751C412.673 99.6889 419.96 88.2254 425.38 89.7361C431.956 91.1579 436.488 107.864 424.314 117.106Z" fill="#F56020"/>
<path d="M154.434 111.508C158.078 117.462 163.765 120.039 166.786 115.684C202.243 62.8103 130.174 71.519 154.434 111.508Z" fill="#F56020"/>
<path d="M350.29 8.24789C327.452 9.84745 315.1 5.84857 290.929 10.9138C238.321 21.8441 227.391 51.0803 226.147 38.3728C225.081 29.3087 252.095 8.42562 287.641 1.84969C319.81 -4.10419 382.725 6.0263 350.29 8.24789Z" fill="#F56020"/>
<path d="M80.4106 121.994C87.6974 113.285 97.2948 117.639 93.1182 125.104C67.8808 170.425 71.3464 189.708 64.3261 184.998C58.4611 181.177 55.973 151.408 80.4106 121.994Z" fill="#F56020"/>
<path d="M521.264 79.5168C515.755 72.852 508.201 76.3177 511.401 82.0938C531.039 117.462 528.285 132.391 533.972 128.747C538.504 125.815 540.459 102.444 521.264 79.5168Z" fill="#F56020"/>
<path d="M98.0056 414.712L95.3397 450.079L90.4521 450.435C90.4521 450.435 65.0371 446.88 47.6198 426.175C30.0247 405.47 14.74 369.746 34.2012 357.928C53.5736 346.286 81.7434 380.765 81.7434 380.765L98.0056 385.12V414.712Z" fill="#F56020"/>
<path d="M85.387 456.833C85.0315 456.833 84.6759 456.803 84.3204 456.744C40.5994 449.191 19.0055 407.069 20.3384 379.61C21.0493 362.904 30.1134 351.974 43.8874 350.907C57.4835 349.841 66.6366 357.483 75.523 364.859C79.9662 368.68 84.6761 372.59 90.2745 375.789C93.207 377.566 94.1845 381.299 92.4961 384.231C90.8077 387.164 86.9865 388.23 84.054 386.453C77.567 382.721 72.2351 378.277 67.6142 374.367C59.3499 367.525 53.4847 362.548 44.776 363.17C34.8232 363.97 32.8683 374.101 32.6017 380.144C31.6242 402.537 50.1079 438.349 86.3644 444.57C89.7412 445.192 91.9627 448.302 91.4296 451.679C90.8964 454.7 88.3195 456.833 85.387 456.833Z" fill="#0F172A"/>
<path d="M517.799 453.012L520.465 415.778C520.465 415.778 545.88 418.355 564.452 438.349C582.758 458.255 583.825 499.665 564.986 512.373C546.058 524.903 532.106 485.092 532.106 485.092L523.575 484.203L517.799 453.012Z" fill="#F56020"/>
<path d="M553.522 517.705C552.219 517.705 550.915 517.586 549.612 517.349C537.349 515.217 534.861 507.752 532.995 502.243C531.484 497.533 530.24 493.889 523.664 490.424C520.643 488.824 519.487 485.092 520.998 482.07C522.598 479.049 526.33 477.894 529.351 479.493C540.37 485.27 542.858 492.823 544.725 498.333C546.324 503.042 546.68 504.286 551.656 505.175C555.566 505.797 558.765 504.553 561.431 501.087C568.274 492.556 570.673 472.029 562.764 452.568C558.587 442.259 548.102 424.575 524.819 421.554C521.442 421.11 519.043 418 519.487 414.623C519.932 411.246 522.953 408.935 526.33 409.291C548.279 412.135 565.252 425.82 574.227 447.947C583.114 469.896 581.781 495.489 571.117 508.818C566.496 514.595 560.365 517.705 553.522 517.705Z" fill="#0F172A"/>
<path d="M408.674 445.547C396.055 445.547 385.48 452.301 385.48 460.654C385.48 469.541 396.055 476.561 408.674 476.561C421.559 476.561 432.134 469.541 432.134 460.654C432.134 452.301 421.559 445.547 408.674 445.547Z" fill="#F56020"/>
<path d="M193.534 445.547C180.827 445.547 170.252 452.301 170.252 460.654C170.252 469.541 180.827 476.561 193.534 476.561C206.153 476.561 216.728 469.541 216.728 460.654C216.728 452.301 206.153 445.547 193.534 445.547Z" fill="#F56020"/>
<path d="M271.379 417.111C279.555 390.363 322.743 390.363 330.829 417.111C313.056 402.359 289.33 402.359 271.379 417.111Z" fill="#0F172A"/>
<path d="M408.674 317.139C425.913 317.139 443.953 331.268 447.152 343.265C438.621 333.223 426.358 326.914 412.317 326.914C387.346 326.914 368.774 345.398 368.596 370.28L368.241 409.646C368.063 422.176 372.95 433.64 380.948 441.726C373.306 441.015 359.177 414.889 359.177 407.247V366.636C359.177 339.444 381.481 317.139 408.674 317.139Z" fill="white"/>
<path d="M193.534 317.139C210.774 317.139 228.725 331.268 231.746 343.265C223.482 333.223 210.952 326.914 197.089 326.914C172.118 326.914 153.546 345.398 153.368 370.28L153.012 409.646C152.835 422.176 157.722 433.64 165.72 441.726C158.078 441.015 143.948 414.889 143.948 407.247V366.636C143.948 339.444 166.253 317.139 193.534 317.139Z" fill="white"/>
<path d="M193.534 338.911C212.374 338.911 227.836 354.106 227.836 373.123V401.115C227.836 419.954 212.374 435.417 193.534 435.417C174.429 435.417 159.233 419.954 159.233 401.115V373.123C159.233 354.106 174.429 338.911 193.534 338.911Z" fill="#0F172A"/>
<path d="M193.534 338.911C200.377 338.911 206.953 340.866 212.373 344.509C227.836 379.521 219.838 437.55 174.251 429.463C165.187 423.242 159.233 412.934 159.233 401.115V373.123C159.233 354.106 174.429 338.911 193.534 338.911Z" fill="#0F172A"/>
<path d="M180.116 361.749C186.781 361.749 192.201 367.347 192.201 374.101V388.052C192.201 394.717 186.781 400.404 180.116 400.404C173.184 400.404 167.764 394.717 167.764 388.052V374.101C167.764 367.347 173.184 361.749 180.116 361.749Z" fill="white"/>
<path d="M374.017 446.08C364.242 477.183 335.361 512.906 301.326 512.906C266.669 512.906 237.611 477.183 228.191 446.08C276.267 424.931 323.098 424.487 374.017 446.08Z" fill="#0F172A"/>
<path d="M355.711 480.915C341.759 468.474 322.565 461.721 301.326 461.721C279.732 461.721 260.271 468.474 246.319 480.915C260.271 498.955 279.732 512.906 301.326 512.906C322.565 512.906 341.759 498.955 355.711 480.915Z" fill="#F56020"/>
<path d="M258.138 510.151C245.964 505.264 271.557 527.391 298.216 528.546C325.586 529.613 352.245 508.019 346.469 509.974C328.518 515.839 311.634 522.148 298.216 521.97C273.69 521.437 258.138 510.151 258.138 510.151Z" fill="#0F172A"/>
<path fill-rule="evenodd" clip-rule="evenodd" d="M378.194 447.591C372.595 465.008 361.309 483.848 346.469 497.444C333.584 509.263 317.944 517.261 301.326 517.261C284.265 517.261 268.447 509.263 255.562 497.444C240.632 483.848 229.258 464.831 224.015 447.413C223.215 445.192 224.37 443.059 226.325 442.082C250.852 431.418 275.2 425.819 299.994 425.819C324.698 425.819 349.757 431.062 375.883 442.082C377.838 443.059 378.994 445.37 378.194 447.591ZM340.515 491.134C353.223 479.493 363.176 463.764 368.774 448.658C345.047 439.06 322.298 434.35 299.994 434.528C277.689 434.528 255.739 439.238 233.434 448.48C238.677 463.498 248.63 479.316 261.338 490.957C272.801 501.443 286.575 508.552 301.326 508.552C315.634 508.552 329.23 501.443 340.515 491.134Z" fill="#0F172A"/>
<path d="M408.674 338.911C427.602 338.911 442.975 354.106 442.975 373.123V401.115C442.975 419.954 427.602 435.417 408.674 435.417C389.835 435.417 374.461 419.954 374.461 401.115V373.123C374.461 354.106 389.835 338.911 408.674 338.911Z" fill="#0F172A"/>
<path d="M408.674 338.911C415.605 338.911 422.181 340.866 427.602 344.509C442.975 379.521 435.067 437.55 389.479 429.463C380.415 423.242 374.461 412.934 374.461 401.115V373.123C374.461 354.106 389.835 338.911 408.674 338.911Z" fill="#0F172A"/>
<path d="M395.256 361.749C402.009 361.749 407.43 367.347 407.43 374.101V388.052C407.43 394.717 402.009 400.404 395.256 400.404C388.591 400.404 382.992 394.717 382.992 388.052V374.101C382.992 367.347 388.591 361.749 395.256 361.749Z" fill="white"/>
<path d="M357.133 392.584C319.543 379.61 281.954 379.61 245.253 392.584L241.165 380.943C280.532 366.992 320.876 366.992 361.22 380.943L357.133 392.584Z" fill="#0F172A"/>
<path fill-rule="evenodd" clip-rule="evenodd" d="M408.674 311.274C423.959 311.274 437.91 317.494 447.952 327.625C457.905 337.578 464.214 351.352 464.214 366.636V407.247C464.214 422.532 457.905 436.483 447.952 446.525C437.91 456.478 423.959 462.787 408.674 462.787C393.478 462.787 379.704 456.478 369.485 446.525C359.532 436.483 353.401 422.532 353.401 407.247V366.636C353.401 351.352 359.532 337.578 369.485 327.625C379.704 317.494 393.478 311.274 408.674 311.274ZM439.776 335.8C431.779 327.803 420.848 322.915 408.674 322.915C396.766 322.915 385.658 327.803 377.838 335.8C369.929 343.798 364.953 354.64 364.953 366.636V407.247C364.953 419.421 369.929 430.352 377.838 438.349C385.658 446.081 396.766 451.235 408.674 451.235C420.848 451.235 431.779 446.081 439.776 438.349C447.596 430.352 452.662 419.421 452.662 407.247V366.636C452.662 354.64 447.596 343.798 439.776 335.8Z" fill="#0F172A"/>
<path fill-rule="evenodd" clip-rule="evenodd" d="M193.534 463.142C162.787 463.142 137.817 438.083 137.817 407.247V366.636C137.817 335.889 162.787 310.918 193.534 310.918C224.281 310.918 249.341 335.889 249.341 366.636V407.247C249.341 438.083 224.281 463.142 193.534 463.142ZM193.534 323.271C169.541 323.271 150.08 342.732 150.08 366.636V407.247C150.08 431.329 169.541 450.879 193.534 450.879C217.528 450.879 237.078 431.329 237.078 407.247V366.636C237.078 342.732 217.528 323.271 193.534 323.271Z" fill="#0F172A"/>
</g>
<defs>
<clipPath id="clip0_305_31">
<rect width="600" height="600" fill="white"/>
</clipPath>
</defs>
</svg>
