<svg width="769" height="171" viewBox="0 0 769 171" fill="none" xmlns="http://www.w3.org/2000/svg">
<path fill-rule="evenodd" clipRule="evenodd" d="M59.4296 18.7584C57.1188 18.7584 54.9737 19.9656 53.7645 21.9466L9.88062 93.8411C7.16065 98.2972 10.3478 104.029 15.5457 104.029H32.7036L12.5474 141.914C9.17106 148.26 16.7768 154.757 22.4543 150.376L105.12 86.5967C110.16 82.7074 107.426 74.602 101.074 74.602H80.8222L111.607 29.2158C114.618 24.7765 111.458 18.7584 106.115 18.7584H59.4296Z" fill="#0F172A"/>
<path fill-rule="evenodd" clipRule="evenodd" d="M50.5423 6C48.2314 6 46.0864 7.20722 44.8771 9.18826L0.99329 81.0827C-1.72668 85.5388 1.46045 91.2702 6.6584 91.2702H23.8162L3.6601 129.155C0.283733 135.502 7.88947 141.999 13.567 137.618L96.2322 73.8383C101.273 69.9491 98.5392 61.8436 92.1865 61.8436H71.9348L102.719 16.4574C105.73 12.0181 102.57 6 97.228 6H50.5423Z" fill="#F472B6"/>
<path d="M437.897 108.818C399.629 105.672 325.085 111.791 254.407 123.88L237.724 126.738C190.826 134.784 165.493 140.393 147.551 146.705C140.549 149.169 139.937 149.498 140.005 150.758C140.107 152.596 141.223 152.455 154.12 148.977C167.465 145.377 179.349 143.04 211.854 137.625C320.495 119.525 370.959 114.234 426.968 115.073C437.944 115.236 455.287 117.641 455.169 118.983C455.012 120.774 443.586 125.51 417.288 134.681C384.936 145.963 365.168 153.662 363.298 155.707C360.101 159.202 363.001 162.38 369.832 162.876C373.737 163.159 374.633 163.113 392.771 161.694C444.849 157.627 478.012 156.412 522.765 156.935C590.916 157.731 634.157 160.312 715.166 168.42C744.275 171.333 745.786 171.418 751.292 170.437L751.389 170.42C753.156 170.113 753.64 167.656 751.976 166.884C747.694 164.9 744.778 164.455 719.541 161.946C634.94 153.532 590.275 150.8 525.27 150.07C491.083 149.685 475.816 149.894 450.793 151.091C433.685 151.908 388.461 154.868 382.098 155.584C378.628 155.976 394.063 150.094 421.088 140.728C455.275 128.878 462.182 125.358 462.726 119.519C463.34 112.934 457.535 110.433 437.897 108.818Z" fill="#F472B6" fill-opacity="0.4"/>
<path d="M163.301 114V34.2H180.401V114H163.301ZM171.167 82.308V67.602H212.435V82.308H171.167ZM171.167 49.59V34.2H217.223V49.59H171.167ZM257.309 115.14C251.153 115.14 245.643 113.81 240.779 111.15C235.991 108.414 232.191 104.69 229.379 99.978C226.643 95.266 225.275 89.87 225.275 83.79C225.275 77.71 226.643 72.352 229.379 67.716C232.191 63.004 235.991 59.28 240.779 56.544C245.643 53.808 251.153 52.44 257.309 52.44C263.389 52.44 268.823 53.808 273.611 56.544C278.475 59.28 282.275 63.004 285.011 67.716C287.747 72.352 289.115 77.71 289.115 83.79C289.115 89.87 287.747 95.266 285.011 99.978C282.275 104.69 278.475 108.414 273.611 111.15C268.823 113.81 263.389 115.14 257.309 115.14ZM257.309 101.004C260.273 101.004 262.933 100.282 265.289 98.838C267.645 97.318 269.469 95.266 270.761 92.682C272.129 90.022 272.813 87.058 272.813 83.79C272.813 80.446 272.129 77.482 270.761 74.898C269.469 72.238 267.645 70.186 265.289 68.742C262.933 67.222 260.273 66.462 257.309 66.462C254.269 66.462 251.571 67.222 249.215 68.742C246.859 70.262 244.997 72.314 243.629 74.898C242.261 77.482 241.615 80.446 241.691 83.79C241.615 87.058 242.261 90.022 243.629 92.682C244.997 95.266 246.859 97.318 249.215 98.838C251.571 100.282 254.269 101.004 257.309 101.004ZM322.042 115.14C317.634 115.14 313.834 114.19 310.642 112.29C307.526 110.314 305.094 107.54 303.346 103.968C301.674 100.32 300.838 95.95 300.838 90.858V53.694H317.026V88.236C317.026 90.972 317.482 93.366 318.394 95.418C319.306 97.394 320.598 98.914 322.27 99.978C323.942 101.042 325.994 101.574 328.426 101.574C330.174 101.574 331.808 101.308 333.328 100.776C334.848 100.168 336.14 99.332 337.204 98.268C338.268 97.204 339.104 95.95 339.712 94.506C340.32 93.062 340.624 91.504 340.624 89.832V53.694H356.812V114H341.422L340.852 101.574L343.816 100.206C342.904 103.018 341.384 105.564 339.256 107.844C337.128 110.124 334.582 111.91 331.618 113.202C328.654 114.494 325.462 115.14 322.042 115.14ZM396.699 115.14C391.455 115.14 386.743 113.81 382.563 111.15C378.383 108.414 375.077 104.728 372.645 100.092C370.289 95.38 369.111 89.946 369.111 83.79C369.111 77.786 370.289 72.428 372.645 67.716C375.077 63.004 378.345 59.28 382.449 56.544C386.629 53.808 391.379 52.44 396.699 52.44C399.511 52.44 402.209 52.896 404.793 53.808C407.453 54.644 409.809 55.822 411.861 57.342C413.989 58.862 415.699 60.572 416.991 62.472C418.283 64.296 419.005 66.234 419.157 68.286L415.053 68.97V29.64H431.241V114H415.965L415.281 100.092L418.473 100.434C418.321 102.334 417.637 104.158 416.421 105.906C415.205 107.654 413.571 109.25 411.519 110.694C409.543 112.062 407.263 113.164 404.679 114C402.171 114.76 399.511 115.14 396.699 115.14ZM400.347 101.688C403.387 101.688 406.047 100.928 408.327 99.408C410.607 97.888 412.393 95.798 413.685 93.138C414.977 90.478 415.623 87.362 415.623 83.79C415.623 80.294 414.977 77.216 413.685 74.556C412.393 71.82 410.607 69.73 408.327 68.286C406.047 66.766 403.387 66.006 400.347 66.006C397.307 66.006 394.647 66.766 392.367 68.286C390.163 69.73 388.415 71.82 387.123 74.556C385.907 77.216 385.299 80.294 385.299 83.79C385.299 87.362 385.907 90.478 387.123 93.138C388.415 95.798 390.163 97.888 392.367 99.408C394.647 100.928 397.307 101.688 400.347 101.688ZM447.023 114V53.694H462.641L463.211 73.074L460.475 69.084C461.387 65.968 462.869 63.156 464.921 60.648C466.973 58.064 469.367 56.05 472.103 54.606C474.915 53.162 477.841 52.44 480.881 52.44C482.173 52.44 483.427 52.554 484.643 52.782C485.859 53.01 486.885 53.276 487.721 53.58L483.389 71.364C482.477 70.908 481.375 70.528 480.083 70.224C478.791 69.844 477.461 69.654 476.093 69.654C474.269 69.654 472.559 69.996 470.963 70.68C469.443 71.288 468.113 72.2 466.973 73.416C465.833 74.556 464.921 75.924 464.237 77.52C463.629 79.116 463.325 80.864 463.325 82.764V114H447.023ZM522.492 115.14C516.336 115.14 510.826 113.81 505.962 111.15C501.174 108.414 497.374 104.69 494.562 99.978C491.826 95.266 490.458 89.87 490.458 83.79C490.458 77.71 491.826 72.352 494.562 67.716C497.374 63.004 501.174 59.28 505.962 56.544C510.826 53.808 516.336 52.44 522.492 52.44C528.572 52.44 534.006 53.808 538.794 56.544C543.658 59.28 547.458 63.004 550.194 67.716C552.93 72.352 554.298 77.71 554.298 83.79C554.298 89.87 552.93 95.266 550.194 99.978C547.458 104.69 543.658 108.414 538.794 111.15C534.006 113.81 528.572 115.14 522.492 115.14ZM522.492 101.004C525.456 101.004 528.116 100.282 530.472 98.838C532.828 97.318 534.652 95.266 535.944 92.682C537.312 90.022 537.996 87.058 537.996 83.79C537.996 80.446 537.312 77.482 535.944 74.898C534.652 72.238 532.828 70.186 530.472 68.742C528.116 67.222 525.456 66.462 522.492 66.462C519.452 66.462 516.754 67.222 514.398 68.742C512.042 70.262 510.18 72.314 508.812 74.898C507.444 77.482 506.798 80.446 506.874 83.79C506.798 87.058 507.444 90.022 508.812 92.682C510.18 95.266 512.042 97.318 514.398 98.838C516.754 100.282 519.452 101.004 522.492 101.004ZM572.687 140.22L585.911 109.212L586.139 118.56L556.727 53.694H575.081L589.787 88.464C590.395 89.756 590.965 91.276 591.497 93.024C592.105 94.696 592.599 96.33 592.979 97.926L590.243 99.066C590.699 97.774 591.231 96.292 591.839 94.62C592.447 92.948 593.055 91.162 593.663 89.262L606.317 53.694H624.785L599.477 114L589.103 140.22H572.687ZM660.998 115.14C654.462 115.14 648.762 113.81 643.898 111.15C639.034 108.49 635.234 104.842 632.498 100.206C629.762 95.57 628.394 90.25 628.394 84.246C628.394 79.61 629.154 75.354 630.674 71.478C632.194 67.602 634.322 64.258 637.058 61.446C639.794 58.558 643.024 56.354 646.748 54.834C650.548 53.238 654.652 52.44 659.06 52.44C663.164 52.44 666.964 53.2 670.46 54.72C673.956 56.164 676.958 58.254 679.466 60.99C682.05 63.65 684.026 66.804 685.394 70.452C686.762 74.1 687.37 78.09 687.218 82.422L687.104 87.438H638.654L636.032 77.52H673.766L671.942 79.572V77.064C671.79 75.012 671.106 73.15 669.89 71.478C668.75 69.806 667.268 68.514 665.444 67.602C663.62 66.69 661.568 66.234 659.288 66.234C655.944 66.234 653.094 66.88 650.738 68.172C648.458 69.464 646.71 71.364 645.494 73.872C644.278 76.38 643.67 79.42 643.67 82.992C643.67 86.64 644.43 89.794 645.95 92.454C647.546 95.114 649.75 97.204 652.562 98.724C655.45 100.168 658.832 100.89 662.708 100.89C665.368 100.89 667.8 100.472 670.004 99.636C672.208 98.8 674.564 97.356 677.072 95.304L684.824 106.134C682.62 108.11 680.188 109.782 677.528 111.15C674.868 112.442 672.132 113.43 669.32 114.114C666.508 114.798 663.734 115.14 660.998 115.14ZM699.181 114V53.694H714.799L715.369 73.074L712.633 69.084C713.545 65.968 715.027 63.156 717.079 60.648C719.131 58.064 721.525 56.05 724.261 54.606C727.073 53.162 729.999 52.44 733.039 52.44C734.331 52.44 735.585 52.554 736.801 52.782C738.017 53.01 739.043 53.276 739.879 53.58L735.547 71.364C734.635 70.908 733.533 70.528 732.241 70.224C730.949 69.844 729.619 69.654 728.251 69.654C726.427 69.654 724.717 69.996 723.121 70.68C721.601 71.288 720.271 72.2 719.131 73.416C717.991 74.556 717.079 75.924 716.395 77.52C715.787 79.116 715.483 80.864 715.483 82.764V114H699.181Z" fill="#0F172A"/>
</svg>
