<svg width="518" height="518" viewBox="0 0 518 518" fill="none" xmlns="http://www.w3.org/2000/svg">
<g clip-path="url(#clip0_362_9)">
<path d="M24.8456 96.687L44.5883 96.8529V252.638H42.8048C43.0122 241.605 43.5514 230.738 44.2565 219.872C34.4681 220.784 25.1774 223.273 18.4167 230.033L24.8456 96.687Z" fill="#F472B6"/>
<path d="M24.8456 96.687H33.5556L30.196 222.734C25.7166 224.351 21.8178 226.674 18.4167 230.033L24.8456 96.687Z" fill="#F9A8D4"/>
<path d="M25.1776 90.6315L44.7959 90.8389C47.9896 90.8389 50.6441 93.4934 50.6441 96.8529V252.638C50.6441 256.039 47.9896 258.694 44.5885 258.694H44.0494H42.6392C42.8051 245.711 43.3443 232.688 44.2567 219.872C42.4733 220.079 40.5239 220.245 38.533 220.618V102.743H30.5281L24.6799 225.43C19.4954 228.25 15.0574 232.688 11.8223 239.117L18.7903 96.3552C18.9562 92.9542 21.8181 90.4656 25.0117 90.6315H25.1776Z" fill="#0F172A"/>
<path d="M6.51304 269.021C6.30566 230.407 23.9331 221.655 44.2565 219.872C41.9338 249.071 42.6389 279.349 42.6389 308.548C42.6389 311.742 42.8048 314.769 43.0122 317.963C23.3939 315.848 6.67895 306.599 6.51304 269.021Z" fill="#F472B6"/>
<path d="M34.2607 221.489C37.4959 220.784 40.8554 220.245 44.2565 219.872C41.9338 249.071 42.6389 279.349 42.6389 308.548C42.6389 311.742 42.8048 314.769 43.0122 317.963C30.5278 316.553 19.3292 312.447 12.5686 299.838C20.5735 298.22 27.8734 295.898 29.9887 286.109C31.7721 277.026 33.9289 243.223 34.2607 221.489Z" fill="#EC4899"/>
<path d="M6.51304 269.021C6.30566 230.407 23.9331 221.655 44.2565 219.872C44.0491 223.439 43.7173 227.006 43.5514 230.572C34.0948 232.688 26.2558 236.96 21.9837 244.633C12.5686 261.555 15.7623 289.51 16.4674 305.52C10.4118 298.22 6.67895 286.814 6.51304 269.021Z" fill="#F9A8D4"/>
<path d="M0.457576 269.021C0.250194 224.144 21.2787 215.434 44.7957 213.65C44.4225 217.756 44.0492 222.028 43.8833 226.135C26.795 228.25 12.3613 236.628 12.5687 269.021C12.7346 300.709 26.2558 309.419 42.8049 311.742C42.8049 316.014 43.0123 320.12 43.3441 324.226C20.5736 322.277 0.789386 312.82 0.457576 269.021Z" fill="#0F172A"/>
<path d="M493.569 96.687L473.827 96.8529V252.638H475.61C475.444 241.605 474.905 230.738 474.2 219.872C483.988 220.784 493.238 223.273 499.998 230.033L493.569 96.687Z" fill="#F472B6"/>
<path d="M493.569 96.687H484.859L488.26 222.734C492.698 224.351 496.597 226.674 499.998 230.033L493.569 96.687Z" fill="#F9A8D4"/>
<path d="M493.237 90.6315L473.661 90.8389C470.425 90.8389 467.771 93.4934 467.771 96.8529V252.638C467.771 256.039 470.425 258.694 473.827 258.694H474.366H475.776C475.61 245.711 475.071 232.688 474.2 219.872C475.983 220.079 477.933 220.245 479.882 220.618V102.743H487.887L493.777 225.43C498.92 228.25 503.399 232.688 506.593 239.117L499.625 96.3552C499.459 92.9542 496.597 90.4656 493.403 90.6315H493.237Z" fill="#0F172A"/>
<path d="M511.943 269.021C512.109 230.407 494.482 221.655 474.2 219.872C476.481 249.071 475.776 279.349 475.776 308.548C475.776 311.742 475.61 314.769 475.444 317.963C495.021 315.848 511.736 306.599 511.943 269.021Z" fill="#F472B6"/>
<path d="M484.154 221.489C480.961 220.784 477.56 220.245 474.2 219.872C476.481 249.071 475.776 279.349 475.776 308.548C475.776 311.742 475.61 314.769 475.444 317.963C487.887 316.553 499.127 312.447 505.888 299.838C497.841 298.22 490.583 295.898 488.426 286.109C486.643 277.026 484.528 243.223 484.154 221.489Z" fill="#EC4899"/>
<path d="M511.943 269.021C512.109 230.407 494.482 221.655 474.2 219.872C474.366 223.439 474.698 227.006 474.905 230.572C484.32 232.688 492.159 236.96 496.431 244.633C505.888 261.555 502.653 289.51 501.948 305.52C508.003 298.22 511.736 286.814 511.943 269.021Z" fill="#F9A8D4"/>
<path d="M517.999 269.021C518.165 224.144 497.136 215.434 473.661 213.65C473.993 217.756 474.366 222.028 474.532 226.135C491.62 228.25 506.054 236.628 505.888 269.021C505.681 300.709 492.159 309.419 475.61 311.742C475.61 316.014 475.444 320.12 475.071 324.226C497.842 322.277 517.626 312.82 517.999 269.021Z" fill="#0F172A"/>
<path d="M259.311 50.9387C485.025 49.8603 473.453 190.175 473.453 308.548C473.453 426.921 377.519 457.033 259.311 457.033C140.896 457.033 44.9617 426.921 44.9617 308.548C44.9617 190.175 33.3899 52.0171 259.311 50.9387Z" fill="#F1F5F9"/>
<path d="M125.592 201.747H392.823C411.529 201.747 426.668 217.383 426.668 236.462V339.863C426.668 466.656 91.7883 466.656 91.7883 339.863V236.462C91.7883 217.383 106.927 201.747 125.592 201.747Z" fill="#CBD5E1"/>
<path d="M259.311 50.9387C373.081 50.3995 426.461 85.6544 451.554 136.048C449.605 135.343 447.489 134.804 445.333 134.099C409.746 64.46 180.423 66.2435 134.509 100.959C110.453 119.126 91.2493 133.891 81.2535 150.274C60.4324 184.824 53.6718 263.339 53.8377 364.624C47.9895 348.614 44.9617 329.908 44.9617 308.548C44.9617 190.175 33.3899 52.0171 259.311 50.9387Z" fill="white"/>
<path d="M390.501 75.866C389.782 79.5988 388.897 83.3317 387.846 87.0646C374.864 134.099 360.97 159.524 341.725 173.418C322.521 187.479 299.004 189.635 266.611 189.801H265.906H265.367C260.887 189.801 256.283 189.967 252.011 189.801C219.411 189.635 195.935 187.686 176.525 173.418C157.28 159.524 143.426 134.099 130.403 87.0646C129.532 83.5391 128.619 80.138 127.914 76.737C131.647 74.9535 135.38 73.2115 139.486 71.5939C140.191 75.4927 141.104 79.5988 142.348 83.8709C154.459 127.836 166.902 151.353 183.824 163.464C200.208 175.575 221.9 177.151 251.846 177.524L252.343 177.358L252.882 177.524C257.155 177.524 261.8 177.524 265.906 177.524C296.142 177.358 317.876 175.575 334.425 163.464C351.347 151.353 363.79 127.836 375.901 83.8709C377.145 79.4329 378.224 74.9535 378.929 70.8888C383.035 72.4649 386.768 74.0825 390.501 75.866Z" fill="#CBD5E1"/>
<path d="M379.634 75.8659C378.929 79.267 378.058 82.6265 377.145 86.1935C365.242 129.287 352.425 152.597 334.964 165.413C317.171 178.229 295.603 180.013 266.072 180.179L265.367 180.386L264.828 180.179C260.887 180.386 256.615 180.386 252.551 180.179C222.812 180.013 201.078 178.229 183.451 165.413C165.824 152.597 153.007 129.287 141.104 86.1935C140.191 82.7924 139.113 82.0873 138.408 78.8937C141.809 77.2761 141.975 77.6494 145.708 76.2392C146.413 79.7647 147.159 83.539 148.196 87.4378C159.436 127.67 174.575 144.924 190.046 156.164C205.185 167.197 224.927 168.814 252.343 168.98H252.882H253.422C257.362 168.98 261.426 169.146 265.367 168.98C293.114 168.814 313.064 167.363 328.203 156.164C343.674 144.924 357.569 124.808 368.601 84.5759C369.846 80.3039 370.758 76.4051 371.463 72.4648C375.196 73.9165 376.274 74.2483 379.634 75.8659Z" fill="white"/>
<path d="M387.307 73.7091C386.602 77.2761 385.69 80.843 384.653 84.7833C372.002 130.532 358.481 155.252 339.775 168.814C320.904 182.501 297.926 184.451 266.611 184.658L265.906 184.824L265.367 184.658C261.095 184.824 256.449 184.824 252.177 184.658C220.489 184.451 197.512 182.501 178.64 168.814C159.976 155.252 146.413 130.532 133.804 84.7833C132.726 81.2163 132.021 77.8152 131.315 74.6216C134.841 72.8381 138.615 71.2205 142.514 69.6444C143.219 73.3773 144.132 77.276 145.376 81.5481C157.114 124.476 169.391 147.247 185.774 159.192C201.784 170.764 222.812 172.547 252.011 172.713H252.551H253.256C257.362 172.713 261.8 172.879 265.906 172.713C295.271 172.547 316.466 170.93 332.641 159.192C349.025 147.247 361.302 124.476 373.081 81.5481C374.325 77.1101 375.196 72.8381 375.901 68.7319C380.007 70.3495 383.74 71.9256 387.307 73.7091Z" fill="#0F172A"/>
<path fill-rule="evenodd" clip-rule="evenodd" d="M259.145 50.0677C480.753 48.9893 480.048 179.847 479.509 297.142V313.691C479.509 375.325 454.416 414.105 413.852 437.456C373.952 460.393 319.286 468.066 259.311 468.066C199.129 468.066 144.463 460.393 104.605 437.456C63.9993 414.105 38.9061 375.325 38.9061 313.691V297.142C38.3669 180.013 37.6618 51.1046 259.145 50.0677ZM467.605 297.142C468.144 185.529 468.684 61.1003 259.311 61.9713C49.7729 63.0497 50.3121 185.695 50.8513 297.142V313.691C50.8513 370.306 73.7877 405.769 110.66 427.129C148.404 448.821 200.913 456.121 259.311 456.121C317.503 456.121 370.053 448.821 407.796 427.129C444.627 405.769 467.605 370.306 467.605 313.691V297.142Z" fill="#0F172A"/>
<path d="M134.675 212.406H383.74C400.994 212.406 415.262 226.466 415.262 243.928V337.913C415.262 453.093 103.153 453.093 103.153 337.913V243.928C103.153 226.466 117.421 212.406 134.675 212.406Z" fill="#334155"/>
<path d="M134.675 212.406H383.74C388.925 212.406 393.694 213.65 398.008 215.807C395.851 219.001 394.607 220.784 394.607 220.784C360.057 223.273 212.318 218.461 139.859 244.467C115.969 253.177 117.255 281.837 116.716 316.221C116.342 342.559 114.02 367.278 118.665 378.145C108.877 366.781 103.153 353.425 103.153 337.913V243.928C103.153 226.466 117.421 212.406 134.675 212.406Z" fill="#475569"/>
<path d="M388.717 212.779C403.69 215.102 415.262 228.25 415.262 243.928V337.913C415.262 439.032 175.114 451.309 116.177 375.117C191.456 424.101 326.047 424.64 381.957 372.09C405.101 350.398 414.184 235.716 388.717 212.779Z" fill="#1E293B"/>
<path fill-rule="evenodd" clip-rule="evenodd" d="M134.675 206.35H383.74C394.068 206.35 403.317 210.623 410.285 217.383C417.046 224.144 421.152 233.6 421.152 243.928V337.913C421.152 382.791 378.763 411.285 324.263 423.396C303.649 428 281.377 430.323 259.145 430.323C237.038 430.323 214.807 428 194.152 423.396C139.652 411.285 97.3047 382.791 97.3047 337.913V243.928C97.3047 233.6 101.411 224.144 108.171 217.383H108.337C115.098 210.623 124.347 206.35 134.675 206.35ZM383.74 218.462H134.675C127.748 218.462 121.319 221.323 116.716 225.927C112.07 230.407 109.208 236.794 109.208 243.928V337.913C109.208 376.03 147.698 400.584 196.806 411.617C216.383 416.096 237.743 418.212 259.145 418.212C280.671 418.212 302.032 416.096 321.609 411.617C370.758 400.584 409.207 376.03 409.207 337.913V243.928C409.207 236.794 406.345 230.573 401.741 225.927C397.095 221.323 390.708 218.462 383.74 218.462Z" fill="#0F172A"/>
<path d="M284.944 346.665C288.137 343.803 292.783 344.135 295.603 347.162C298.465 350.19 298.299 355.002 295.271 357.697C290.46 362.135 284.778 365.702 278.515 368.191C272.459 370.514 265.906 371.758 259.311 371.758C252.551 371.758 245.956 370.514 239.9 368.191C233.679 365.702 227.955 362.135 223.144 357.697C220.116 355.002 219.95 350.19 222.812 347.162C225.674 344.135 230.278 343.803 233.471 346.665C236.873 349.858 240.979 352.347 245.417 354.131C249.689 355.707 254.334 356.619 259.311 356.619C264.122 356.619 268.726 355.707 272.998 354.131C277.478 352.347 281.542 349.858 284.944 346.665Z" fill="#F1F5F9"/>
<path d="M183.659 269.726C198.756 269.726 211.074 282.003 211.074 297.142C211.074 312.281 198.756 324.558 183.659 324.558C168.52 324.558 156.243 312.281 156.243 297.142C156.243 282.003 168.52 269.726 183.659 269.726Z" fill="#F1F5F9"/>
<path d="M334.798 269.726C349.937 269.726 362.214 282.003 362.214 297.142C362.214 312.281 349.937 324.558 334.798 324.558C319.659 324.558 307.382 312.281 307.382 297.142C307.382 282.003 319.659 269.726 334.798 269.726Z" fill="#F1F5F9"/>
</g>
<defs>
<clipPath id="clip0_362_9">
<rect width="518" height="518" fill="white"/>
</clipPath>
</defs>
</svg>
