<svg width="488" height="488" viewBox="0 0 488 488" fill="none" xmlns="http://www.w3.org/2000/svg">
<path fill-rule="evenodd" clipRule="evenodd" d="M255.054 65C248.102 65 241.649 68.6102 238.011 74.5345L105.988 289.534C97.8054 302.86 107.394 320 123.031 320H174.65L114.011 433.295C103.854 452.274 126.735 471.703 143.816 458.603L392.51 267.87C407.675 256.239 399.45 232 380.339 232H319.413L412.026 96.2728C421.085 82.9972 411.578 65 395.506 65H255.054Z" fill="#0F172A"/>
<path fill-rule="evenodd" clipRule="evenodd" d="M225.054 25C218.102 25 211.649 28.6102 208.011 34.5345L75.9883 249.534C67.8054 262.86 77.3937 280 93.0315 280H144.65L84.0112 393.295C73.8536 412.274 96.7351 431.703 113.816 418.603L362.51 227.87C377.675 216.239 369.45 192 350.339 192H289.413L382.026 56.2728C391.085 42.9972 381.578 25 365.506 25H225.054Z" fill="#F472B6"/>
</svg>
