<svg width="1514" height="1514" viewBox="0 0 1514 1514" fill="none"
    xmlns="http://www.w3.org/2000/svg">
    <g clip-path="url(#clip0_361_520)">
        <path
            d="M107.71 129.145L162.393 129.604V561.098H157.453C158.028 530.54 159.521 500.441 161.474 470.342C134.362 472.87 108.629 479.762 89.9033 498.488L107.71 129.145Z"
            fill="#F472B6" />
        <path
            d="M107.71 129.145H131.835L122.53 478.269C110.122 482.749 99.3236 489.183 89.9033 498.488L107.71 129.145Z"
            fill="#F9A8D4" />
        <path
            d="M108.629 112.372L162.968 112.947C171.814 112.947 179.166 120.299 179.166 129.604V561.099C179.166 570.519 171.814 577.871 162.393 577.871H160.9H156.994C157.454 541.913 158.947 505.841 161.474 470.342C156.534 470.917 151.135 471.376 145.621 472.41V145.918H123.449L107.25 485.736C92.8902 493.548 80.5979 505.841 71.6372 523.647L90.9372 128.226C91.3968 118.806 99.3236 111.913 108.169 112.372H108.629Z"
            fill="#0F172A" />
        <path
            d="M56.9318 606.477C56.3574 499.522 105.182 475.282 161.474 470.342C155.04 551.219 156.993 635.082 156.993 715.959C156.993 724.804 157.453 733.191 158.027 742.037C103.688 736.178 57.3913 710.559 56.9318 606.477Z"
            fill="#F472B6" />
        <path
            d="M133.788 474.823C142.748 472.87 152.054 471.376 161.474 470.342C155.041 551.219 156.994 635.082 156.994 715.959C156.994 724.804 157.453 733.191 158.027 742.037C123.448 738.131 92.4302 726.757 73.7046 691.833C95.8767 687.353 116.096 680.92 121.955 653.808C126.895 628.649 132.868 535.02 133.788 474.823Z"
            fill="#EC4899" />
        <path
            d="M56.9318 606.477C56.3574 499.522 105.182 475.282 161.474 470.342C160.899 480.222 159.98 490.102 159.521 499.982C133.328 505.841 111.615 517.673 99.7825 538.926C73.7045 585.798 82.5503 663.228 84.5033 707.572C67.7306 687.353 57.3913 655.761 56.9318 606.477Z"
            fill="#F9A8D4" />
        <path
            d="M40.1595 606.477C39.5851 482.175 97.8298 458.05 162.968 453.11C161.934 464.483 160.9 476.316 160.44 487.689C113.109 493.548 73.1304 516.754 73.7048 606.477C74.1643 694.246 111.616 718.371 157.453 724.804C157.453 736.637 158.028 748.01 158.947 759.384C95.8769 753.984 41.0785 727.791 40.1595 606.477Z"
            fill="#0F172A" />
        <path
            d="M1405.98 129.145L1351.3 129.604V561.098H1356.24C1355.78 530.54 1354.29 500.441 1352.33 470.342C1379.45 472.87 1405.06 479.762 1423.79 498.488L1405.98 129.145Z"
            fill="#F472B6" />
        <path
            d="M1405.98 129.145H1381.86L1391.28 478.269C1403.57 482.749 1414.37 489.183 1423.79 498.488L1405.98 129.145Z"
            fill="#F9A8D4" />
        <path
            d="M1405.06 112.372L1350.84 112.947C1341.88 112.947 1334.53 120.299 1334.53 129.604V561.099C1334.53 570.519 1341.88 577.871 1351.3 577.871H1352.79H1356.7C1356.24 541.913 1354.75 505.841 1352.33 470.342C1357.27 470.917 1362.67 471.376 1368.07 472.41V145.918H1390.24L1406.56 485.736C1420.8 493.548 1433.21 505.841 1442.06 523.647L1422.76 128.226C1422.3 118.806 1414.37 111.913 1405.52 112.372H1405.06Z"
            fill="#0F172A" />
        <path
            d="M1456.88 606.477C1457.33 499.522 1408.51 475.282 1352.33 470.342C1358.65 551.219 1356.7 635.082 1356.7 715.959C1356.7 724.804 1356.24 733.191 1355.78 742.037C1410 736.178 1456.3 710.559 1456.88 606.477Z"
            fill="#F472B6" />
        <path
            d="M1379.91 474.823C1371.06 472.87 1361.64 471.376 1352.33 470.342C1358.65 551.219 1356.7 635.082 1356.7 715.959C1356.7 724.804 1356.24 733.191 1355.78 742.037C1390.24 738.131 1421.38 726.757 1440.1 691.833C1417.82 687.353 1397.71 680.92 1391.74 653.808C1386.8 628.649 1380.94 535.02 1379.91 474.823Z"
            fill="#EC4899" />
        <path
            d="M1456.88 606.477C1457.33 499.522 1408.51 475.282 1352.33 470.342C1352.79 480.222 1353.71 490.102 1354.29 499.982C1380.36 505.841 1402.08 517.673 1413.91 538.926C1440.1 585.798 1431.14 663.228 1429.19 707.572C1445.96 687.353 1456.3 655.761 1456.88 606.477Z"
            fill="#F9A8D4" />
        <path
            d="M1473.65 606.477C1474.11 482.175 1415.86 458.05 1350.84 453.11C1351.76 464.483 1352.79 476.316 1353.25 487.689C1400.58 493.548 1440.56 516.754 1440.1 606.477C1439.53 694.246 1402.08 718.371 1356.24 724.804C1356.24 736.637 1355.78 748.01 1354.75 759.384C1417.82 753.984 1472.61 727.791 1473.65 606.477Z"
            fill="#0F172A" />
        <path
            d="M500.259 1042.91C430.182 1139.53 221.098 1462 461.774 1429.03C501.178 1412.71 490.839 1391.46 498.191 1343.67C507.152 1285.54 510.599 1171.58 553.909 1128.15C561.836 1120.8 515.538 1052.22 516.457 1042.91H500.259Z"
            fill="#F1F5F9" />
        <path
            d="M498.191 1343.67C507.152 1285.54 510.598 1171.58 553.908 1128.15C560.801 1121.83 526.337 1068.53 517.95 1048.77L488.311 1090.7C488.311 1090.7 459.821 1183.87 435.581 1264.75C410.422 1347.12 389.743 1427.53 465.679 1401.91C499.684 1389.05 492.792 1378.71 498.191 1343.67Z"
            fill="#CBD5E1" />
        <path
            d="M500.259 1042.91C438.568 1128.15 269.463 1387.55 393.649 1426.5C329.545 1310.7 462.693 1129.65 522.431 1057.73C518.41 1050.26 516.457 1044.86 516.457 1042.91H500.259Z"
            fill="white" />
        <path
            d="M500.719 1042.91C508.531 1038.43 518.985 1040.96 523.35 1048.77C527.831 1056.7 525.304 1067.04 517.492 1071.52C483.487 1091.16 456.26 1129.65 432.594 1170.08C398.13 1229.25 375.498 1295.88 368.491 1332.87C364.125 1355.96 365.044 1375.72 371.477 1391C374.464 1398.47 378.945 1404.79 384.804 1409.73C391.237 1414.67 398.589 1418.11 406.976 1419.61C424.782 1423.05 447.414 1419.61 475.1 1408.23C483.487 1404.79 493.252 1408.81 496.698 1417.65C500.259 1426.04 496.239 1435.92 487.393 1439.37C453.847 1453.15 424.782 1457.06 401.117 1452.69C386.297 1449.71 374.005 1443.73 364.125 1435.35C353.786 1427.07 345.859 1416.16 340.459 1403.29C332.073 1382.61 330.12 1356.54 335.52 1326.9C343.446 1287.03 367.112 1215.92 403.529 1153.31C430.182 1108.51 461.2 1066.12 500.719 1042.91Z"
            fill="#0F172A" />
        <path
            d="M454.881 1364.92C454.881 1358.03 460.74 1352.52 467.633 1352.52C474.066 1353.09 480.04 1358.49 479.466 1365.38C479.466 1383.07 469.126 1395.48 456.834 1400.42C451.435 1402.83 445.001 1403.87 439.027 1403.29C432.594 1402.83 426.735 1399.85 421.795 1394.91C414.902 1387.55 411.915 1375.26 417.315 1358.49C419.383 1352.06 426.735 1348.61 433.168 1351.02C439.602 1353.09 443.048 1359.98 440.98 1366.88C438.568 1372.73 439.027 1376.76 440.061 1377.67C440.521 1378.25 440.98 1378.25 442.014 1378.71C443.508 1378.71 445.461 1378.25 446.954 1377.67C450.86 1375.72 454.881 1371.24 454.881 1364.92Z"
            fill="#0F172A" />
        <path
            d="M1014.01 1042.91C1083.51 1139.53 1292.6 1462 1052.03 1429.03C1012.51 1412.71 1022.85 1391.46 1015.5 1343.67C1006.66 1285.54 1003.21 1171.58 959.784 1128.15C951.857 1120.8 998.269 1052.22 997.235 1042.91H1014.01Z"
            fill="#F1F5F9" />
        <path
            d="M1015.5 1343.67C1006.66 1285.54 1003.21 1171.58 959.784 1128.15C952.891 1121.83 987.356 1068.53 995.742 1048.77L1025.38 1090.7C1025.38 1090.7 1053.99 1183.87 1078.11 1264.75C1103.27 1347.12 1123.95 1427.53 1048.01 1401.91C1014.01 1389.05 1020.9 1378.71 1015.5 1343.67Z"
            fill="#CBD5E1" />
        <path
            d="M1014.01 1042.91C1075.13 1128.15 1244.35 1387.55 1120.04 1426.5C1184.15 1310.7 1051 1129.65 991.376 1057.73C995.282 1050.26 997.236 1044.86 997.236 1042.91H1014.01Z"
            fill="white" />
        <path
            d="M1013.09 1042.91C1005.16 1038.43 994.823 1040.96 990.342 1048.77C985.862 1056.7 988.389 1067.04 996.316 1071.52C1030.32 1091.16 1057.43 1129.65 1081.1 1170.08C1116.14 1229.25 1138.31 1295.88 1145.2 1332.87C1149.57 1355.96 1148.65 1375.72 1142.22 1391C1139.23 1398.47 1134.86 1404.79 1128.89 1409.73C1122.46 1414.67 1115.1 1418.11 1106.72 1419.61C1089.03 1423.05 1066.28 1419.61 1038.71 1408.23C1030.32 1404.79 1020.44 1408.81 1016.99 1417.65C1013.55 1426.04 1017.45 1435.92 1026.3 1439.37C1059.85 1453.15 1089.03 1457.06 1112.69 1452.69C1127.4 1449.71 1139.8 1443.73 1149.57 1435.35C1160.02 1427.07 1167.83 1416.16 1173.35 1403.29C1181.62 1382.61 1183.69 1356.54 1178.17 1326.9C1170.36 1287.03 1146.7 1215.92 1110.16 1153.31C1083.51 1108.51 1052.49 1066.12 1013.09 1042.91Z"
            fill="#0F172A" />
        <path
            d="M1034.23 1365.38C1033.77 1358.49 1039.63 1353.09 1046.06 1352.52C1052.95 1352.52 1058.93 1358.03 1058.93 1364.92C1058.93 1371.24 1062.83 1375.72 1066.74 1377.67C1068.23 1378.25 1070.18 1378.71 1071.68 1378.71C1072.71 1378.25 1073.17 1378.25 1073.63 1377.67C1074.67 1376.76 1075.12 1372.73 1072.71 1366.88C1070.76 1359.98 1074.21 1353.09 1080.64 1351.02C1086.96 1348.61 1094.42 1352.06 1096.38 1358.49C1101.78 1375.26 1098.79 1387.55 1091.9 1394.91C1086.96 1399.85 1081.1 1402.83 1074.67 1403.29C1068.81 1403.87 1062.37 1402.83 1056.97 1400.42C1044.57 1395.48 1034.23 1383.07 1034.23 1365.38Z"
            fill="#0F172A" />
        <path
            d="M495.779 1089.21L1017 1101.04L1052.03 1410.76L1055.48 1410.3C1055.48 1415.2 1055.48 1420.1 1055.48 1425.01L776.779 1495.08C762.533 1495.54 738.408 1497.5 730.481 1497.5C724.048 1496.58 480.5 1434.43 458.787 1427.07C458.328 1421.56 458.328 1416.62 458.328 1410.76L461.2 1412.25L495.779 1089.21Z"
            fill="#F1F5F9" />
        <path
            d="M1050.54 1375.72L1052.03 1390.08L1053.41 1389.51C1054.45 1395.94 1054.91 1400.42 1055.48 1404.33L1011.6 1418.69L783.786 1481.76C760.121 1481.76 735.881 1481.76 712.215 1481.3L711.756 1483.25L674.764 1473.37C620.999 1457.63 526.337 1429.03 458.787 1406.28C459.247 1395.94 462.234 1397.89 464.187 1379.17C539.664 1406.28 734.962 1460.5 743.348 1460.5C751.734 1460.5 976.557 1394.45 1050.54 1375.72Z"
            fill="#CBD5E1" />
        <path
            d="M564.822 1090.7L942.552 1099.09L916.359 1294.85L601.24 1296.34C601.24 1296.34 578.608 1171.12 564.822 1090.7Z"
            fill="#F472B6" />
        <path
            d="M939.565 1126.2L920.38 1288.41C919.346 1294.39 916.359 1299.79 912.453 1303.23C907.972 1307.14 902.114 1309.66 896.14 1309.66H617.553C611.119 1309.66 605.26 1307.14 601.239 1303.23C596.874 1299.33 593.887 1293.35 593.427 1287.49L574.127 1126.2C572.174 1108.97 592.853 1120.34 600.78 1121.26C604.686 1121.83 608.247 1125.28 608.707 1129.65L624.905 1268.77L887.753 1267.27L903.607 1128.15C904.986 1117.35 937.612 1110.46 939.565 1123.79C939.565 1124.71 939.565 1125.74 939.565 1126.2Z"
            fill="#EC4899" />
        <path
            d="M757.134 1185.36C822.731 1185.36 875.921 1238.67 875.921 1304.73C875.921 1370.32 822.731 1423.51 757.134 1423.51C691.077 1423.51 637.772 1370.32 637.772 1304.73C637.772 1238.67 691.077 1185.36 757.134 1185.36Z"
            fill="#CBD5E1" />
        <path
            d="M757.134 1185.36C819.284 1185.36 870.521 1233.73 875.461 1294.85L637.772 1296.34C642.252 1234.19 693.949 1185.36 757.134 1185.36Z"
            fill="#EC4899" />
        <path
            d="M1027.33 1052.79C1060.88 1244.53 1072.71 1343.67 1072.25 1415.24C1061.8 1421.1 1055.48 1425.01 1055.48 1425.01L1038.13 1430.52C1040.66 1361.48 1030.78 1268.19 997.235 1075.42L1027.33 1052.79ZM442.014 1421.1C440.52 1347.69 452.353 1247.05 487.852 1044.4L517.491 1068.07C482.912 1267.85 472.572 1362.51 475.559 1432.47C463.726 1428.57 452.353 1424.55 442.014 1421.1Z"
            fill="#0F172A" />
        <path
            d="M950.939 1114.83L929.226 1295.88C928.192 1304.27 920.84 1310.7 912.913 1310.7H600.78C592.394 1310.7 585.042 1303.69 584.467 1295.3L562.87 1114.83C574.205 1116.36 585.54 1117.85 596.874 1119.31L616.06 1277.15H897.634L916.934 1119.31C928.269 1117.85 939.604 1116.36 950.939 1114.83Z"
            fill="#0F172A" />
        <path
            d="M757.133 1213.51C806.877 1213.51 847.89 1254.41 847.89 1304.73C847.89 1355.04 806.877 1395.48 757.133 1395.48C706.815 1395.48 665.918 1355.04 665.918 1304.73C665.918 1254.41 706.815 1213.51 757.133 1213.51Z"
            fill="#F472B6" />
        <path
            d="M799.984 1224.88C828.59 1240.16 847.89 1270.26 847.89 1304.73C847.89 1355.04 806.877 1395.48 757.134 1395.48C728.988 1395.48 703.829 1383.07 687.056 1362.97C790.104 1398.47 847.315 1310.7 799.984 1224.88Z"
            fill="#EC4899" />
        <path fill-rule="evenodd" clip-rule="evenodd"
            d="M757.134 1197.2C786.658 1197.2 813.31 1209.03 833.07 1228.33L833.989 1229.25C852.83 1249.01 864.662 1275.66 864.662 1304.73C864.662 1334.36 852.255 1361.48 833.07 1380.66C813.31 1400.42 786.658 1412.25 757.134 1412.25C727.035 1412.25 700.382 1400.42 680.623 1380.66C661.437 1361.48 649.145 1334.36 649.145 1304.73C649.145 1275.09 661.437 1247.97 680.623 1228.79V1228.33C700.382 1209.03 727.035 1197.2 757.134 1197.2ZM809.404 1251.99C796.078 1238.67 777.353 1230.28 757.134 1230.28C736.455 1230.28 717.614 1238.67 704.403 1251.99C691.077 1265.32 682.69 1284.05 682.69 1304.73C682.69 1324.94 691.077 1343.67 704.403 1357C717.614 1370.32 736.455 1378.71 757.134 1378.71C777.353 1378.71 796.078 1370.32 809.404 1357C822.731 1343.67 831.117 1324.94 831.117 1304.73C831.117 1284.51 823.19 1266.24 810.323 1252.91L809.404 1251.99Z"
            fill="#0F172A" />
        <path
            d="M757.133 2.43081C1382.32 -0.556106 1350.27 388.087 1350.27 715.959C1350.27 1043.83 1084.54 1127.23 757.133 1127.23C429.147 1127.23 163.427 1043.83 163.427 715.959C163.427 388.087 131.375 5.41772 757.133 2.43081Z"
            fill="#F1F5F9" />
        <path
            d="M386.756 420.139H1126.94C1178.75 420.139 1220.68 463.449 1220.68 516.295V802.694C1220.68 1153.89 293.128 1153.89 293.128 802.694V516.295C293.128 463.449 335.06 420.139 386.756 420.139Z"
            fill="#CBD5E1" />
        <path
            d="M757.133 2.43084C1072.25 0.937381 1220.1 98.5865 1289.61 238.167C1284.21 236.214 1278.35 234.721 1272.38 232.768C1173.81 39.8821 538.629 44.8221 411.455 140.978C344.824 191.296 291.634 232.193 263.948 277.571C206.277 373.268 187.552 590.738 188.011 871.278C171.813 826.934 163.427 775.122 163.427 715.958C163.427 388.087 131.375 5.41775 757.133 2.43084Z"
            fill="white" />
        <path
            d="M1120.5 71.4745C1118.51 81.8138 1116.06 92.1531 1113.15 102.492C1077.19 232.768 1038.71 303.19 985.402 341.675C932.212 380.62 867.075 386.594 777.352 387.053H775.399H773.906C761.499 387.053 748.747 387.513 736.914 387.053C646.617 386.594 581.595 381.194 527.83 341.675C474.525 303.19 436.155 232.768 400.082 102.492C397.67 92.7275 395.142 83.3073 393.189 73.887C403.529 68.9471 413.868 64.1221 425.241 59.6417C427.194 70.4406 429.722 81.8138 433.168 93.6466C466.713 215.421 501.178 280.558 548.049 314.104C593.428 347.649 653.51 352.015 736.455 353.049L737.833 352.589L739.327 353.049C751.16 353.049 764.026 353.049 775.399 353.049C859.148 352.589 919.346 347.649 965.183 314.104C1012.05 280.558 1046.52 215.421 1080.06 93.6466C1083.51 81.3543 1086.5 68.9471 1088.45 57.6887C1099.82 62.0542 1110.16 66.5346 1120.5 71.4745Z"
            fill="#CBD5E1" />
        <path
            d="M1090.4 71.4746C1088.45 80.8948 1086.04 90.2002 1083.51 100.08C1050.54 219.442 1015.04 284.005 966.677 319.503C917.393 355.002 857.654 359.941 775.859 360.401L773.906 360.975L772.413 360.401C761.499 360.975 749.666 360.975 738.408 360.401C656.038 359.941 595.84 355.002 547.016 319.503C498.191 284.005 462.693 219.442 429.722 100.08C427.194 90.6597 424.207 88.7068 422.254 79.8609C431.675 75.3805 432.134 76.4145 442.474 72.5085C444.427 82.2734 446.494 92.7276 449.366 103.526C480.499 214.961 522.431 262.752 565.282 293.885C607.213 324.443 661.897 328.924 737.833 329.383H739.327H740.82C751.734 329.383 762.992 329.843 773.906 329.383C850.762 328.924 906.02 324.903 947.951 293.885C990.802 262.752 1029.29 207.035 1059.85 95.5997C1063.29 83.7669 1065.82 72.968 1067.77 62.0543C1078.11 66.0752 1081.1 66.9942 1090.4 71.4746Z"
            fill="white" />
        <path
            d="M1111.66 65.5007C1109.7 75.3805 1107.18 85.2603 1104.31 96.174C1069.27 222.888 1031.82 291.357 980.004 328.924C927.733 366.834 864.089 372.234 777.353 372.808L775.4 373.268L773.907 372.808C762.074 373.268 749.207 373.268 737.374 372.808C649.605 372.234 585.961 366.834 533.69 328.924C481.993 291.357 444.427 222.888 409.503 96.174C406.516 86.2942 404.563 76.8739 402.61 68.0281C412.375 63.0882 422.829 58.6078 433.628 54.2423C435.581 64.5816 438.109 75.3805 441.555 87.2132C474.066 206.115 508.071 269.185 553.449 302.271C597.794 334.323 656.038 339.263 736.915 339.722H738.408H740.361C751.735 339.722 764.027 340.182 775.4 339.722C856.736 339.263 915.44 334.782 960.244 302.271C1005.62 269.185 1039.63 206.115 1072.25 87.2132C1075.7 74.9209 1078.11 63.0882 1080.07 51.715C1091.44 56.1953 1101.78 60.5608 1111.66 65.5007Z"
            fill="#0F172A" />
        <path fill-rule="evenodd" clip-rule="evenodd"
            d="M756.674 0.0183378C1370.48 -2.96858 1368.53 359.482 1367.04 684.366V730.204C1367.04 900.917 1297.54 1008.33 1185.18 1073.01C1074.67 1136.54 923.252 1157.79 757.134 1157.79C590.441 1157.79 439.027 1136.54 328.626 1073.01C216.158 1008.33 146.654 900.917 146.654 730.204V684.366C145.161 359.941 143.208 2.89037 756.674 0.0183378ZM1334.07 684.366C1335.56 375.221 1337.05 30.5767 757.134 32.9892C176.753 35.9762 178.247 375.68 179.74 684.366V730.204C179.74 887.017 243.27 985.24 345.399 1044.4C449.941 1104.49 595.381 1124.71 757.134 1124.71C918.312 1124.71 1063.87 1104.49 1168.41 1044.4C1270.42 985.24 1334.07 887.017 1334.07 730.204V684.366Z"
            fill="#0F172A" />
        <path
            d="M727.035 1248.55C737.834 1248.55 747.254 1257.39 747.254 1268.19C747.254 1279.57 737.834 1288.41 727.035 1288.41C715.662 1288.41 706.816 1279.57 706.816 1268.19C706.816 1257.39 715.662 1248.55 727.035 1248.55Z"
            fill="#F9A8D4" />
        <path
            d="M411.915 449.664H1101.78C1149.57 449.664 1189.09 488.608 1189.09 536.973V797.294C1189.09 1116.32 324.605 1116.32 324.605 797.294V536.973C324.605 488.608 364.125 449.664 411.915 449.664Z"
            fill="#334155" />
        <path
            d="M411.915 449.664H1101.78C1116.14 449.664 1129.35 453.11 1141.3 459.084C1135.32 467.93 1131.88 472.87 1131.88 472.87C1036.18 479.762 626.973 466.436 426.275 538.467C360.104 562.592 363.665 641.975 362.172 737.211C361.138 810.161 354.704 878.63 367.571 908.729C340.459 877.252 324.605 840.26 324.605 797.294V536.973C324.605 488.608 364.125 449.664 411.915 449.664Z"
            fill="#475569" />
        <path
            d="M1115.56 450.698C1157.04 457.131 1189.09 493.548 1189.09 536.973V797.294C1189.09 1077.37 523.925 1111.38 360.679 900.343C569.188 1036.02 941.978 1037.51 1096.84 891.956C1160.94 831.874 1186.1 514.227 1115.56 450.698Z"
            fill="#1E293B" />
        <path fill-rule="evenodd" clip-rule="evenodd"
            d="M411.916 432.891H1101.78C1130.38 432.891 1156 444.724 1175.3 463.449C1194.03 482.175 1205.4 508.368 1205.4 536.973V797.294C1205.4 921.596 1087.99 1000.52 937.038 1034.06C879.942 1046.82 818.251 1053.25 756.674 1053.25C695.443 1053.25 633.866 1046.82 576.655 1034.06C425.702 1000.52 308.408 921.596 308.408 797.294V536.973C308.408 508.368 319.781 482.175 338.507 463.449H338.966C357.692 444.724 383.31 432.891 411.916 432.891ZM1101.78 466.436H411.916C392.731 466.436 374.924 474.363 362.172 487.115C349.305 499.522 341.379 517.214 341.379 536.973V797.294C341.379 902.87 447.988 970.88 584.008 1001.44C638.232 1013.85 697.396 1019.7 756.674 1019.7C816.298 1019.7 875.462 1013.85 929.686 1001.44C1065.82 970.88 1172.31 902.87 1172.31 797.294V536.973C1172.31 517.214 1164.39 499.982 1151.64 487.115C1138.77 474.363 1121.08 466.436 1101.78 466.436Z"
            fill="#0F172A" />
        <path
            d="M828.13 821.534C836.976 813.608 849.843 814.527 857.655 822.913C865.582 831.299 865.122 844.626 856.736 852.093C843.409 864.385 827.671 874.265 810.324 881.158C793.551 887.591 775.4 891.038 757.134 891.038C738.408 891.038 720.142 887.591 703.369 881.158C686.137 874.265 670.283 864.385 656.957 852.093C648.571 844.626 648.111 831.299 656.038 822.913C663.965 814.527 676.717 813.608 685.562 821.534C694.983 830.38 706.356 837.273 718.648 842.213C730.481 846.579 743.348 849.106 757.134 849.106C770.46 849.106 783.212 846.579 795.044 842.213C807.452 837.273 818.71 830.38 828.13 821.534Z"
            fill="#F1F5F9" />
        <path
            d="M547.59 608.43C589.407 608.43 623.526 642.435 623.526 684.366C623.526 726.298 589.407 760.303 547.59 760.303C505.658 760.303 471.653 726.298 471.653 684.366C471.653 642.435 505.658 608.43 547.59 608.43Z"
            fill="#F1F5F9" />
        <path
            d="M966.218 608.43C1008.15 608.43 1042.15 642.435 1042.15 684.366C1042.15 726.298 1008.15 760.303 966.218 760.303C924.286 760.303 890.281 726.298 890.281 684.366C890.281 642.435 924.286 608.43 966.218 608.43Z"
            fill="#F1F5F9" />
        <path
            d="M454.881 1437.87C445.461 1435.34 440.061 1426.04 442.014 1416.62C444.427 1407.31 454.307 1401.91 463.267 1404.33L745.301 1477.85L1050.54 1403.87C1059.85 1401.91 1069.27 1407.77 1071.68 1416.62C1073.63 1426.04 1068.23 1435.34 1058.93 1437.87L749.667 1512.32C746.795 1513.35 743.807 1513.35 740.361 1512.32L454.881 1437.87Z"
            fill="#0F172A" />
    </g>
    <defs>
        <clipPath id="clip0_361_520">
            <rect width="1514" height="1514" fill="white" />
        </clipPath>
    </defs>
</svg>