<svg xmlns="http://www.w3.org/2000/svg" width="488" height="488" viewBox="0 0 488 488" fill="none"><style>
@keyframes a0_f { 0% { fill: #d8dce8; animation-timing-function: steps(1); } 1.408% { fill: #fff; animation-timing-function: cubic-bezier(.1,1.3,1,1); } 19.718% { fill: #0f172a; animation-timing-function: steps(1); } 21.127% { fill: #fff; animation-timing-function: cubic-bezier(.1,1.7,1,1); } 50.704% { fill: #0f172a; animation-timing-function: steps(1); } 52.113% { fill: #f3f3f3; animation-timing-function: cubic-bezier(.5,1.1,1,1); } 56.338% { fill: #1d1d2c; animation-timing-function: steps(1); } 57.746% { fill: #f3f3f3; animation-timing-function: cubic-bezier(.1,2,1,1); } 100% { fill: #0f172a; } }
@keyframes a1_t { 0% { transform: translate(0px,-0.7px); } 1.408% { transform: translate(8.7px,5.8px); } 2.817% { transform: translate(0px,0px); } 19.718% { transform: translate(0px,0px); } 21.127% { transform: translate(8.7px,6.3px); } 22.535% { transform: translate(0px,0px); } 50.704% { transform: translate(0px,0px); } 52.113% { transform: translate(8.7px,6px); } 53.521% { transform: translate(0px,0px); animation-timing-function: cubic-bezier(0,0,1,1); } 56.338% { transform: translate(0px,0px); animation-timing-function: cubic-bezier(0,0,1,1); } 57.746% { transform: translate(8.7px,4.6px); } 59.155% { transform: translate(0px,0px); animation-timing-function: cubic-bezier(0,0,1,1); } 77.465% { transform: translate(0px,0px); } 100% { transform: translate(0px,0px); } }
</style><path fill-rule="evenodd" clipRule="evenodd" d="M255.1 65c-7 0-13.5 3.6-17.1 9.5l-132 215c-8.2 13.4 1.4 30.5 17 30.5h51.7l-60.7 113.3c-10.1 19 12.7 38.4 29.8 25.3l248.7-190.7c15.2-11.7 6.9-35.9-12.2-35.9h-60.9l92.6-135.7c9.1-13.3-0.4-31.3-16.5-31.3h-140.4Z" fill="#d8dce8" style="animation: 7.1s linear infinite both a0_f;"/><path fill-rule="evenodd" clipRule="evenodd" d="M225.1 25c-7 0-13.5 3.6-17.1 9.5l-132 215c-8.2 13.4 1.4 30.5 17 30.5h51.7l-60.7 113.3c-10.1 19 12.7 38.4 29.8 25.3l248.7-190.7c15.2-11.7 6.9-35.9-12.2-35.9h-60.9l92.6-135.7c9.1-13.3-0.4-31.3-16.5-31.3h-140.4Z" fill="#f472b6" transform="translate(229.3,223.2) translate(-229.3,-223.9)" style="animation: 7.1s linear infinite both a1_t;"/></svg>