<svg width="638" height="638" viewBox="0 0 638 638" fill="none" xmlns="http://www.w3.org/2000/svg">
<path d="M277.755 634.407C388.904 634.407 479.754 628.796 479.754 621.7C479.754 614.851 388.904 609.075 277.755 609.075C166.359 609.075 75.5085 614.851 75.5085 621.7C75.5085 628.796 166.359 634.407 277.755 634.407Z" fill="#0F172A"/>
<path d="M545.107 443.63C531.987 501.392 502.034 528.869 461.188 538.689C424.964 565.836 378.837 565.589 362.334 537.864C341.045 534.48 318.848 529.777 295.744 524.496C272.639 519.132 250.443 513.769 229.896 507.498C203.078 525.321 161.325 505.682 140.531 465.332C108.02 438.762 92.8369 401.135 106.204 343.208C114.126 308.634 206.791 -47.5874 258.859 114.557C266.781 121.818 290.05 73.0511 330.648 47.8012C390.142 10.5864 469.522 21.8911 477.031 72.556C484.953 125.696 458.218 171.162 481.075 170.667C489.409 170.502 505.417 151.441 513.338 143.52C639.67 17.8478 554.101 404.848 545.107 443.63Z" fill="#F56020"/>
<path d="M115.776 437.359C101.501 413.595 97.1276 383.311 106.204 343.208C114.126 308.634 206.791 -47.5874 258.859 114.557C266.78 121.818 290.05 73.0511 330.648 47.8012C390.142 10.5864 469.522 21.8911 477.031 72.556C484.953 125.696 458.218 171.162 481.075 170.667C489.409 170.502 505.417 151.441 513.338 143.52C554.596 102.427 573.245 116.042 579.351 154.494C548.49 110.018 538.588 143.85 499.311 175.866C460.033 207.882 455.99 153.999 455.99 153.999C456.485 104.572 475.711 82.3753 441.879 53.7423C397.156 29.4826 351.195 53.4122 318.023 82.8705C293.598 104.242 277.92 131.39 265.295 131.39C235.094 131.225 226.513 95.9904 226.513 95.9904C190.618 116.537 159.262 204.664 137.395 278.351C115.116 352.615 100.758 422.094 115.776 437.359Z" fill="#FF9E75"/>
<path d="M503.684 451.717C494.607 491.655 478.269 514.099 444.52 522.185C414.402 544.712 376.114 544.382 362.499 521.443C344.923 518.637 326.44 514.759 307.378 510.386C288.152 506.012 239.963 495.533 222.965 490.334C200.685 505.105 166.194 488.767 148.783 455.265C121.882 433.316 129.061 416.483 140.036 368.458C146.472 339.99 206.296 24.3665 249.452 158.702C256.136 164.561 292.856 121.983 326.605 101.024C375.784 70.2454 423.808 57.4554 430.08 99.3736C436.598 143.355 449.636 220.012 468.615 219.682C475.546 219.682 488.831 203.674 495.432 197.072C600.063 93.1023 512.761 411.614 503.684 451.717Z" fill="#FED500"/>
<path d="M434.618 514.759C410.028 533.077 378.837 532.913 367.698 514.264C353.423 511.871 325.78 505.105 310.102 501.556C294.589 497.926 240.623 486.126 226.678 481.918C208.607 493.883 180.304 480.515 166.359 453.202C127.081 430.015 203.243 133.783 238.973 245.097C244.336 250.048 277.92 216.794 305.316 199.63C345.666 174.546 393.195 174.381 398.229 208.542C403.592 244.437 431.73 299.887 447.243 299.557C452.937 299.392 463.746 286.437 468.945 281.156C556.742 194.102 494.937 507.002 434.618 514.759Z" fill="#FEB200"/>
<path fill-rule="evenodd" clip-rule="evenodd" d="M550.718 444.786C543.952 474.821 532.647 497.018 517.712 513.026C503.024 528.869 484.623 538.689 463.746 543.887C460.693 546.115 457.558 548.261 454.339 550.158C436.929 560.39 418.28 565.094 401.777 564.434C384.531 563.774 369.596 557.172 360.106 544.712C359.776 544.217 359.281 543.722 358.951 543.062C349.214 541.577 339.064 539.514 328.585 537.451C316.785 534.975 305.563 532.583 294.423 530.107C283.449 527.549 272.144 524.826 260.509 521.855C250.057 519.325 240.128 516.629 230.721 513.769C230.061 514.099 229.566 514.429 228.823 514.759C215.043 522.02 198.705 521.278 182.862 514.429C167.679 507.828 152.826 495.533 141.769 478.7C139.706 475.646 137.726 472.263 135.993 468.88C119.324 455.265 107.195 438.432 100.758 417.72C94.2397 396.761 93.7446 372.007 100.593 342.053C105.214 322.332 136.983 198.805 173.455 124.954C183.687 104.077 194.497 86.9138 205.306 76.9293C217.766 65.3771 230.391 62.6541 242.521 73.0511C249.947 79.4874 256.961 91.287 263.232 110.018C281.056 84.6857 301.19 59.436 327.595 42.9328C345.831 31.6281 365.717 24.5315 385.026 21.726C404.087 18.8379 422.488 19.9932 438.001 24.8617C454.174 29.8126 467.294 38.7244 475.216 51.5144C478.929 57.4555 481.487 64.1393 482.642 71.7308C486.356 96.9807 482.642 120.25 479.754 138.156C478.434 146.738 477.196 154.164 477.196 159.198C477.196 162.911 478.269 165.056 480.91 165.056C485.283 164.891 495.762 153.669 503.519 145.583C505.747 143.19 507.727 140.962 509.213 139.476C524.561 124.294 537.02 116.207 547.335 113.731L547.83 113.566C564.003 109.853 574.483 118.6 580.506 135.433C585.952 150.451 587.768 172.153 587.438 197.485C585.952 287.097 555.752 422.754 550.718 444.786ZM509.46 505.27C522.91 490.664 533.142 470.283 539.578 442.31C544.612 420.361 574.483 285.612 575.968 197.238C576.298 173.308 574.648 152.761 569.944 139.311C565.901 128.337 559.63 122.643 550.553 124.624L550.058 124.789C541.806 126.851 530.997 133.948 517.299 147.563C515.649 149.048 513.833 151.111 511.77 153.257C502.694 162.911 490.234 176.196 481.075 176.361C469.852 176.526 466.139 170.337 465.974 159.363C465.809 153.257 466.964 145.583 468.45 136.258C471.338 119.26 474.886 96.8157 471.338 73.4637C470.512 67.3575 468.45 62.1589 465.644 57.4555C459.208 47.306 448.233 39.8796 434.783 35.6713C420.59 31.298 404.087 30.4728 386.759 32.9483C368.853 35.6713 350.534 42.1075 333.701 52.5045C312.412 65.8721 295.744 86.2537 283.779 100.694C280.231 105.067 277.012 108.946 274.372 111.999C266.781 120.415 259.519 123.963 254.981 118.765C249.947 111.008 247.554 92.2773 235.094 81.7153C228.328 75.9392 220.737 78.0021 212.815 85.4285C203.243 94.1752 193.341 110.183 183.522 130.07C147.628 202.849 116.106 324.972 111.733 344.529C105.379 372.502 105.709 395.441 111.568 414.337C117.509 433.151 128.566 448.334 143.914 460.794C144.574 461.289 145.069 462.031 145.647 462.692C147.297 466.075 149.195 469.375 151.341 472.428C161.16 487.281 174.115 498.256 187.4 503.95C200.025 509.478 212.98 510.221 223.625 504.61C224.615 504.115 225.688 503.62 226.513 502.959C227.998 501.969 229.731 501.557 231.546 502.134C241.861 505.27 252.423 508.158 263.232 510.881C273.547 513.356 284.934 516.079 296.899 518.967C309.029 521.608 320.499 524.166 330.978 526.394C341.788 528.539 352.515 530.602 363.324 532.253C364.81 532.418 366.377 533.408 367.202 534.975C367.863 535.966 368.55 536.983 369.265 538.029C376.444 547.436 388.409 552.469 402.272 553.129C416.712 553.707 433.05 549.416 448.398 540.339C451.616 538.524 454.835 536.296 457.888 534.15C458.383 533.573 459.208 533.243 459.868 533.078C479.259 528.374 495.928 519.627 509.46 505.27Z" fill="#0F172A"/>
<path d="M377.104 92.1121C392.287 85.7583 407.47 88.2338 408.296 100.199C418.445 243.116 276.517 134.608 377.104 92.1121Z" fill="#FEB200"/>
<path d="M447.573 241.961C455 237.34 463.086 237.34 464.571 243.612C481.982 317.381 398.559 272.575 447.573 241.961Z" fill="#FEB200"/>
<path d="M272.804 189.894C270.164 180.074 263.068 173.885 256.961 177.929C184.347 227.603 290.875 254.586 272.804 189.894Z" fill="#FEB200"/>
<path d="M499.146 135.598C495.598 137.248 492.214 136.588 492.214 133.783C492.214 117.444 501.126 108.615 505.912 111.008C511.441 113.731 512.101 129.739 499.146 135.598Z" fill="#F56020"/>
<path d="M255.971 74.6188C258.034 80.8075 262.737 84.3557 266.285 80.9725C309.194 40.5397 242.356 33.5259 255.971 74.6188Z" fill="#F56020"/>
<path d="M454.67 21.726C433.628 18.5079 423.313 12.4018 400.374 11.9067C350.534 10.7514 334.691 35.0111 336.012 23.3763C337.002 14.9597 365.717 1.67464 399.219 2.9949C429.585 4.15012 484.458 26.4294 454.67 21.726Z" fill="#F56020"/>
<path d="M186.905 68.8427C195.157 62.489 203.078 68.5127 197.715 74.2888C165.534 110.348 164.626 128.337 159.097 122.478C154.724 117.94 158.602 90.4619 186.905 68.8427Z" fill="#F56020"/>
<path d="M594.699 121.653C590.986 114.391 583.56 115.877 585.21 121.818C595.689 158.042 590.161 170.998 596.02 168.77C600.723 167.119 607.324 146.408 594.699 121.653Z" fill="#F56020"/>
<path d="M118.004 431.665C142.429 443.96 326.77 517.977 458.218 522.185C492.874 523.341 514.989 544.052 504.509 564.599C468.615 635.562 16.6746 531.592 42.9972 442.805C48.1958 424.899 71.7952 408.231 118.004 431.665Z" fill="#FEB200"/>
<path d="M118.004 431.665C142.429 443.96 326.77 517.977 458.218 522.185C492.874 523.341 514.989 544.052 504.509 564.599C504.344 565.094 503.849 565.589 503.684 566.166C500.301 538.194 474.226 538.524 474.226 538.524C329.163 533.408 137.726 461.289 100.263 445.281C62.7185 429.437 45.5552 436.699 49.1034 470.448C42.6672 461.124 40.2743 451.882 42.9973 442.805C48.1958 424.899 71.7953 408.231 118.004 431.665Z" fill="#FFDC8A"/>
<path fill-rule="evenodd" clip-rule="evenodd" d="M120.81 425.807C136.158 433.563 215.373 465.91 304.655 489.674C356.063 503.289 410.853 514.264 458.383 515.749C471.173 516.079 482.312 518.967 491.224 523.506C498.155 527.054 503.684 531.592 507.562 536.791C511.771 542.402 513.833 548.591 513.668 555.192C513.503 559.235 512.431 563.444 510.45 567.487C494.442 599.008 409.863 600.163 316.29 584.155C270.164 576.068 221.644 564.104 178.323 549.416C134.673 534.975 96.2201 517.647 70.4751 499.411C44.3176 481.01 30.7023 461.124 36.561 440.907C37.2761 438.927 38.1288 436.919 39.119 434.884C42.9972 427.127 50.0936 420.031 60.4906 416.318C70.4751 412.934 83.265 412.274 99.2731 416.978C105.874 419.04 113.136 421.929 120.81 425.807ZM301.355 502.299C211 478.205 130.629 445.281 115.116 437.359C108.02 433.893 101.501 431.335 95.5599 429.685C82.4399 425.807 72.2904 425.972 64.864 428.612C58.0152 431.17 53.3117 435.709 50.7537 440.742C50.0936 441.98 49.5985 443.3 49.2685 444.62C45.2252 458.483 56.6124 473.831 78.0666 488.766C102.656 506.342 139.871 522.846 182.367 537.121C225.192 551.479 272.969 563.444 318.518 571.2C406.81 586.548 485.86 587.208 498.816 561.628C499.971 559.235 500.466 556.842 500.631 554.697C500.631 551.149 499.476 547.6 497.083 544.382C494.442 540.834 490.564 537.699 485.283 535.141C478.104 531.427 468.615 529.034 458.053 528.704C409.368 527.219 353.587 516.244 301.355 502.299Z" fill="#0F172A"/>
<path d="M96.0551 472.758C108.68 475.481 150.516 485.796 180.964 502.134C178.819 508.818 164.791 522.516 119.655 501.226C93.2495 491.325 96.0551 476.472 96.0551 472.758Z" fill="#ED8309"/>
<path d="M96.2202 472.758C98.7782 480.185 97.458 487.776 107.195 493.14C110.908 495.203 121.553 499.081 133.847 502.464C144.244 505.105 155.384 508.488 166.359 510.221C177.994 511.046 179.314 502.629 180.964 501.804C181.212 511.376 171.557 516.079 165.864 514.924C154.724 513.191 142.099 510.551 131.125 507.498C118.004 504.115 107.03 500.236 102.821 497.926C93.5797 492.645 93.7447 478.37 96.2202 472.758Z" fill="#0F172A"/>
<path d="M132.609 505.435C140.036 514.099 139.046 527.054 130.464 534.48C121.717 541.907 108.68 540.834 101.336 532.252C93.9095 523.671 94.8998 510.716 103.481 503.289C112.228 495.863 125.266 496.853 132.609 505.435Z" fill="#FEB200"/>
<path d="M124.688 512.201C128.236 516.41 127.906 522.846 123.533 526.559C119.324 530.272 112.888 529.777 109.258 525.486C105.709 521.113 106.039 514.759 110.413 511.211C114.621 507.498 121.057 507.993 124.688 512.201Z" fill="#ED8309"/>
<path d="M120.48 515.749C122.213 517.812 122.048 520.618 119.985 522.351C118.004 524.001 115.116 523.836 113.466 521.855C111.733 519.958 111.898 516.904 113.961 515.254C115.776 513.521 118.829 513.934 120.48 515.749Z" fill="#0F172A"/>
<path fill-rule="evenodd" clip-rule="evenodd" d="M136.158 502.299H136.323C140.861 507.663 142.924 514.264 142.429 520.783C141.934 527.219 138.881 533.573 133.682 538.194H133.517C128.236 542.732 121.552 544.712 115.116 544.217C108.515 543.722 102.326 540.834 97.7879 535.471H97.6229C93.0845 530.107 91.0217 523.506 91.5168 516.904C92.0119 510.551 95.0648 504.115 100.263 499.576C105.709 494.873 112.393 492.975 118.829 493.47C125.431 494.048 131.619 496.853 136.158 502.299ZM132.61 519.958C132.94 516.079 131.619 511.871 128.896 508.653C126.091 505.27 122.213 503.454 118.169 503.124C114.126 502.959 110.083 504.115 106.7 507.003C103.482 509.726 101.666 513.769 101.336 517.647C100.924 521.608 102.161 525.899 104.967 529.034C107.855 532.417 111.733 534.315 115.776 534.48C119.82 534.81 123.863 533.573 127.246 530.767C130.464 527.879 132.28 524.001 132.61 519.958Z" fill="#0F172A"/>
<path d="M160.913 470.613C171.557 483.073 170.237 501.557 157.777 512.366C145.482 523.011 126.751 521.443 116.106 509.148C105.544 496.688 106.865 478.205 119.325 467.56C131.619 456.915 150.35 458.318 160.913 470.613Z" fill="#FEB200"/>
<path d="M160.913 470.613C161.49 471.108 161.82 471.603 162.15 472.098L160.583 474.656C154.064 469.045 143.254 465.745 133.352 467.89C122.543 470.118 109.753 483.073 117.839 503.124C117.839 505.848 117.674 508.323 117.509 510.551C116.932 510.056 116.601 509.726 116.106 509.148C105.544 496.688 106.865 478.205 119.325 467.56C131.619 456.915 150.35 458.318 160.913 470.613Z" fill="#F2CF83"/>
<path d="M148.618 482.083C153.239 487.446 152.496 495.368 147.297 500.071C141.934 504.61 133.847 503.949 129.309 498.751C124.688 493.305 125.431 485.218 130.629 480.68C135.993 476.142 144.079 476.637 148.618 482.083Z" fill="#ED8309"/>
<path fill-rule="evenodd" clip-rule="evenodd" d="M164.626 467.395C170.897 474.656 173.62 483.733 172.877 492.48C172.217 501.226 168.174 509.891 160.913 516.079C153.734 522.186 144.739 524.826 135.993 524.166C127.246 523.506 118.664 519.628 112.393 512.366C106.204 505.105 103.481 496.028 104.142 487.281C104.802 478.535 108.927 469.953 116.106 463.847C123.368 457.658 132.28 454.935 141.109 455.595C150.02 456.255 158.437 460.299 164.626 467.395ZM163.14 491.82C163.636 485.383 161.655 479.03 157.282 473.831C152.826 468.715 146.802 465.91 140.366 465.332C134.177 464.837 127.576 466.735 122.543 471.273C117.344 475.646 114.456 481.753 113.961 487.941C113.466 494.378 115.446 500.731 119.82 506.012C124.193 511.211 130.464 514.099 136.653 514.594C142.924 514.924 149.525 513.026 154.559 508.653C159.757 504.115 162.645 498.091 163.14 491.82Z" fill="#0F172A"/>
<path d="M145.07 484.228C148.288 487.941 147.793 493.305 144.244 496.523C140.531 499.576 135.168 499.246 131.95 495.533C128.896 491.985 129.309 486.456 132.94 483.403C136.488 480.185 142.099 480.68 145.07 484.228Z" fill="#0F172A"/>
<path d="M344.923 546.775C356.723 546.61 396.331 547.436 427.027 556.182C426.367 562.618 416.547 577.554 371.741 567.487C345.996 563.939 345.666 549.993 344.923 546.775Z" fill="#ED8309"/>
<path d="M344.923 546.775C348.802 552.799 349.214 559.895 359.116 562.783C362.664 563.939 372.896 565.259 384.696 565.837C394.68 566.167 405.325 566.992 415.392 566.167C426.037 564.599 425.541 556.842 426.862 555.852C429.007 564.269 421.333 570.54 415.887 570.54C405.655 571.365 393.855 571.365 383.376 570.87C370.916 570.375 360.271 569.137 355.898 567.982C346.656 565.094 343.933 552.304 344.923 546.775Z" fill="#0F172A"/>
<path d="M384.201 568.642C392.618 574.913 394.35 586.878 388.079 595.13C381.725 603.546 369.926 605.197 361.509 599.008C353.175 592.737 351.36 580.937 357.796 572.52C363.985 564.104 375.784 562.453 384.201 568.642Z" fill="#FEB200"/>
<path d="M378.507 576.399C382.55 579.452 383.376 585.31 380.323 589.354C377.352 593.562 371.411 594.47 367.202 591.416C363.159 588.198 362.334 582.505 365.387 578.296C368.523 574.253 374.299 573.18 378.507 576.399Z" fill="#ED8309"/>
<path d="M375.454 580.442C377.352 581.844 377.682 584.485 376.279 586.548C374.959 588.363 372.236 588.693 370.256 587.373C368.358 585.888 368.028 583.165 369.43 581.267C370.916 579.452 373.639 578.956 375.454 580.442Z" fill="#0F172A"/>
<path fill-rule="evenodd" clip-rule="evenodd" d="M386.924 565.094C392.123 568.972 395.176 574.583 396.001 580.442C396.826 586.383 395.506 592.737 391.627 597.853C387.749 603.051 382.221 606.269 376.279 607.095C370.256 607.92 363.985 606.599 358.951 602.721H358.786C353.753 598.843 350.534 593.067 349.709 587.208C348.802 581.267 350.204 575.078 354.083 569.88C357.961 564.599 363.655 561.628 369.596 560.721C375.454 559.895 381.726 561.216 386.924 565.094ZM387.089 581.845C386.594 578.131 384.696 574.748 381.561 572.355C378.342 569.88 374.464 568.972 370.751 569.467C367.203 570.21 363.655 572.025 361.344 575.243C358.951 578.461 358.126 582.34 358.621 585.888C359.116 589.519 360.931 593.067 364.15 595.46C367.368 597.853 371.246 598.678 374.959 598.183C378.507 597.688 382.056 595.79 384.366 592.572C386.759 589.354 387.749 585.475 387.089 581.845Z" fill="#0F172A"/>
<path d="M402.767 531.757C414.732 540.834 417.207 557.915 408.13 569.88C399.219 581.845 382.22 584.32 370.256 575.408C358.291 566.332 355.733 549.251 364.645 537.286C373.639 525.321 390.637 522.846 402.767 531.757Z" fill="#FEB200"/>
<path d="M402.767 531.757C403.262 532.252 403.592 532.582 404.087 532.913L403.262 535.471C396.166 531.757 385.934 530.932 377.352 534.81C368.193 539.019 359.116 553.129 370.421 569.715C371.081 572.025 371.411 574.253 371.576 576.233C371.081 576.068 370.586 575.738 370.256 575.408C358.291 566.332 355.733 549.251 364.645 537.286C373.804 525.321 390.637 522.846 402.767 531.757Z" fill="#F2CF83"/>
<path d="M394.02 544.547C399.054 548.426 400.209 555.687 396.331 560.886C392.452 566.167 385.026 567.157 379.828 563.278C374.794 559.4 373.639 552.139 377.517 546.94C381.395 541.659 388.739 540.669 394.02 544.547Z" fill="#ED8309"/>
<path fill-rule="evenodd" clip-rule="evenodd" d="M405.407 528.209C412.339 533.408 416.547 540.999 417.785 549.086C418.94 557.007 417.042 565.424 411.844 572.52C406.645 579.617 399.054 583.825 390.967 584.815C383.046 586.053 374.464 584.155 367.533 578.956C360.436 573.758 356.228 566.166 355.073 558.08C354.082 550.158 355.898 541.659 361.096 534.645C366.377 527.714 373.969 523.506 381.89 522.351C389.977 521.113 398.394 523.011 405.407 528.209ZM408.791 550.323C407.965 544.547 405.077 539.184 400.044 535.471C395.01 531.757 388.904 530.437 383.211 531.097C377.517 531.922 372.071 534.975 368.358 540.009C364.48 545.042 363.159 551.149 363.984 556.842C364.81 562.618 367.863 567.982 372.896 571.695C377.847 575.573 383.871 576.894 389.647 576.068C395.505 575.243 400.869 572.19 404.582 567.157C408.295 562.123 409.698 556.017 408.791 550.323Z" fill="#0F172A"/>
<path d="M391.297 547.27C394.68 549.828 395.506 554.862 392.783 558.41C390.142 561.958 385.274 562.618 381.725 559.895C378.177 557.337 377.517 552.304 379.993 548.756C382.716 545.208 387.749 544.547 391.297 547.27Z" fill="#0F172A"/>
<path d="M130.959 334.792L122.048 366.478L117.674 365.983C117.674 365.983 95.0647 358.061 82.7699 336.112C70.475 314.08 78.5616 276.453 98.2829 269.191C118.169 262.013 122.048 300.878 122.048 300.878L136.158 307.644L130.959 334.792Z" fill="#F56020"/>
<path d="M112.723 370.851C112.063 370.851 111.403 370.714 110.743 370.439C89.7838 362.517 75.5086 343.043 71.6303 317.133C68.3297 295.184 73.5282 273.895 84.4203 265.478C89.9489 261.105 96.7151 260.28 103.316 263.085C113.383 267.376 116.849 274.885 120.232 282.146C122.708 287.51 125.266 293.038 130.877 297.989C133.27 300.052 133.435 303.683 131.372 306.076C129.309 308.386 125.678 308.634 123.285 306.571C115.942 300.052 112.558 292.791 109.835 287.015C106.782 280.496 104.802 276.205 98.8606 273.647C96.0551 272.492 93.7446 272.74 91.4342 274.472C84.9979 279.506 80.0469 296.174 82.935 315.483C84.5028 325.715 90.6916 350.552 114.786 359.711C117.757 360.867 119.242 364.167 118.087 367.138C117.262 369.448 115.034 370.851 112.723 370.851Z" fill="#0F172A"/>
<path d="M515.649 422.589L509.955 455.1L514.164 456.42C514.164 456.42 537.928 459.143 558.475 444.786C579.186 430.345 588.263 392.883 573.658 377.783C558.97 362.765 538.423 396.101 538.423 396.101H522.745L515.649 422.589Z" fill="#F56020"/>
<path d="M523.24 463.847C521.645 463.847 520.022 463.792 518.372 463.682C515.236 463.434 512.843 460.629 513.174 457.493C513.421 454.357 516.144 451.964 519.362 452.212C545.107 454.357 561.528 434.718 567.386 426.054C578.279 410.046 581.084 392.965 577.453 385.621C576.133 383.063 574.153 381.743 570.935 381.578C564.498 381.248 560.95 384.301 555.422 388.757C550.471 392.883 544.282 397.916 534.875 400.474C531.822 401.299 528.686 399.484 527.779 396.431C526.954 393.378 528.769 390.242 531.822 389.417C538.918 387.519 543.457 383.806 548.16 379.928C554.349 374.812 560.785 369.613 571.595 370.191C578.856 370.521 584.55 374.234 587.685 380.588C593.791 392.8 589.336 414.172 576.876 432.573C563.178 452.625 543.787 463.847 523.24 463.847Z" fill="#0F172A"/>
<path d="M377.352 407.736C362.004 433.893 328.255 460.134 297.477 453.037C266.285 446.023 247.224 407.571 244.996 377.535C293.021 368.293 335.516 377.782 377.352 407.736Z" fill="#0F172A"/>
<path d="M353.422 435.544C343.273 421.351 327.43 411.284 308.039 406.911C288.482 402.372 269.669 404.518 254.486 412.934C263.398 431.996 277.92 448.664 297.477 453.037C316.785 457.658 337.002 448.829 353.422 435.544Z" fill="#F56020"/>
<path d="M235.26 274.803C252.258 278.681 263.233 295.844 259.189 313.007L253.496 338.34C249.617 355.503 232.371 366.148 215.373 362.27C198.21 358.391 187.4 341.31 191.279 324.147L197.22 298.897C201.015 281.734 218.096 270.924 235.26 274.803Z" fill="#0F172A"/>
<path d="M235.26 274.803C241.531 276.288 247.059 279.506 251.103 283.88C258.034 318.784 238.643 369.696 199.035 352.78C192.104 345.354 188.886 334.792 191.278 324.147L197.22 298.897C201.015 281.734 218.096 270.924 235.26 274.803Z" fill="#0F172A"/>
<path d="M218.261 292.791C224.45 294.359 228.163 300.383 226.843 306.489L223.955 319.279C222.635 325.302 216.363 329.016 210.34 327.695C204.234 326.375 200.355 320.269 201.758 314.08L204.729 301.373C206.131 295.349 212.155 291.471 218.261 292.791Z" fill="white"/>
<path d="M259.024 441.815C249.04 434.884 267.441 460.134 291.535 466.57C316.125 473.254 344.758 459.308 339.065 459.803C321.736 461.289 304.986 463.682 292.856 460.629C270.824 455.265 259.024 441.815 259.024 441.815Z" fill="#0F172A"/>
<path d="M289.72 362.104C302.675 339.66 341.788 348.572 343.603 374.399C330.483 357.153 309.029 352.285 289.72 362.104Z" fill="#0F172A"/>
<path d="M408.625 416.318C396.826 413.595 386.099 417.72 384.366 425.229C382.551 433.316 390.472 441.98 402.272 444.62C413.742 447.178 424.799 442.97 426.697 434.884C428.347 427.292 420.26 419.041 408.625 416.318Z" fill="#F56020"/>
<path d="M213.228 371.676C201.428 368.953 190.618 372.997 188.886 380.588C187.07 388.675 194.992 397.256 206.791 399.979C218.261 402.537 229.401 398.329 231.216 390.242C232.866 382.651 224.78 374.399 213.228 371.676Z" fill="#F56020"/>
<path fill-rule="evenodd" clip-rule="evenodd" d="M380.653 409.964C372.071 424.569 357.961 439.257 341.622 448.499C327.43 456.585 311.752 460.464 296.569 457.08C281.303 453.615 268.596 443.135 259.354 429.685C248.544 414.337 242.356 394.781 241.201 377.948C240.953 375.72 242.356 374.069 244.336 373.739C268.761 368.953 291.865 368.953 314.31 374.069C336.672 379.103 358.291 389.17 379.662 404.518C381.395 405.756 381.89 408.066 380.653 409.964ZM337.579 441.567C351.524 433.646 363.819 421.351 371.906 408.891C352.35 395.441 332.793 386.529 312.577 381.826C292.36 377.205 271.484 377.04 249.452 380.918C251.102 395.606 256.796 411.944 265.955 425.064C274.207 436.864 285.182 446.188 298.467 449.159C311.422 452.212 325.037 448.664 337.579 441.567Z" fill="#0F172A"/>
<path d="M430.74 319.444C447.738 323.322 458.713 340.485 454.67 357.731L448.893 382.981C445.015 400.144 427.852 410.789 410.854 406.911C393.69 403.032 382.881 386.034 386.759 368.788L392.618 343.538C396.496 326.375 413.577 315.566 430.74 319.444Z" fill="#0F172A"/>
<path d="M430.74 319.444C436.929 320.929 442.54 324.147 446.583 328.521C453.514 363.425 434.123 414.337 394.515 397.504C387.584 390.078 384.366 379.433 386.759 368.788L392.618 343.538C396.496 326.375 413.577 315.566 430.74 319.444Z" fill="#0F172A"/>
<path d="M413.742 337.432C419.93 339 423.644 345.024 422.323 351.13L419.435 363.92C418.115 370.026 411.844 373.904 405.82 372.337C399.714 371.016 395.836 364.91 397.156 358.886L400.209 346.096C401.612 339.99 407.636 336.112 413.742 337.432Z" fill="white"/>
</svg>
